<svg width="50" height="50" viewBox="0 0 50 50" fill="none" xmlns="http://www.w3.org/2000/svg">
<rect width="50" height="50" rx="25" fill="#E9EFF3"/>
<path d="M15.7374 31.4284C15.7365 31.0223 15.816 30.6201 15.9715 30.245C16.127 29.8699 16.3554 29.5293 16.6433 29.243L20.8861 25.0002L16.6433 20.7569C16.3552 20.4707 16.1269 20.1301 15.9714 19.7549C15.8159 19.3797 15.7365 18.9774 15.7377 18.5713C15.7366 18.1653 15.8161 17.7631 15.9716 17.388C16.127 17.0129 16.3553 16.6724 16.6433 16.3861C16.9296 16.0981 17.2701 15.8698 17.6453 15.7143C18.0204 15.5588 18.4226 15.4792 18.8287 15.4802C19.2349 15.4792 19.6372 15.5587 20.0124 15.7143C20.3875 15.8698 20.7281 16.0983 21.0144 16.3864L25.2571 20.6286L29.243 16.6433C29.8265 16.0593 30.6028 15.7376 31.4284 15.7374C32.2541 15.7371 33.0304 16.0593 33.6138 16.6433C34.1976 17.227 34.5192 18.0028 34.5195 18.8289C34.5206 19.235 34.4411 19.6373 34.2856 20.0124C34.1301 20.3876 33.9017 20.7281 33.6136 21.0143L29.6282 25.0002L33.6139 28.9859C34.1978 29.5698 34.5192 30.3453 34.5195 31.1715C34.5207 31.5776 34.4413 31.9798 34.2858 32.3549C34.1304 32.73 33.902 33.0705 33.6138 33.3567C33.0304 33.9406 32.2541 34.2623 31.4284 34.2626C30.6028 34.2628 29.8265 33.9406 29.243 33.3567L25.2569 29.3716L21.0141 33.6138C20.7279 33.9018 20.3873 34.1302 20.0122 34.2857C19.637 34.4412 19.2348 34.5207 18.8287 34.5197C18.4226 34.5207 18.0204 34.4412 17.6453 34.2857C17.2701 34.1302 16.9296 33.9018 16.6433 33.6138C16.3552 33.3276 16.1268 32.987 15.9713 32.6119C15.8158 32.2368 15.7363 31.8345 15.7374 31.4284ZM22.6418 25.0002C22.6415 25.1861 22.5708 25.372 22.4286 25.5142L17.6719 30.2715C17.3623 30.5811 17.1923 30.9918 17.192 31.4287C17.1915 31.6436 17.2337 31.8565 17.316 32.0551C17.3983 32.2537 17.5192 32.434 17.6716 32.5855C17.8232 32.7379 18.0035 32.8587 18.2021 32.941C18.4006 33.0233 18.6135 33.0655 18.8285 33.0651C19.0435 33.0659 19.2565 33.0239 19.4551 32.9415C19.6537 32.8592 19.8339 32.7382 19.9853 32.5855L24.7429 27.829C24.8793 27.6926 25.0643 27.616 25.2571 27.616C25.45 27.616 25.635 27.6926 25.7714 27.829L30.2713 32.3284C30.4229 32.4808 30.6031 32.6017 30.8017 32.684C31.0003 32.7664 31.2132 32.8085 31.4282 32.8079C31.6432 32.8085 31.8563 32.7664 32.0549 32.6841C32.2536 32.6018 32.4339 32.4809 32.5856 32.3284C32.7379 32.1767 32.8587 31.9964 32.941 31.7978C33.0233 31.5992 33.0654 31.3862 33.0649 31.1713C33.0656 30.9564 33.0236 30.7436 32.9413 30.5451C32.859 30.3466 32.7381 30.1665 32.5856 30.0152L28.0857 25.5142C27.9493 25.3779 27.8727 25.193 27.8726 25.0002C27.8726 24.8073 27.9491 24.6224 28.0854 24.486L32.5853 19.9855C32.7377 19.834 32.8586 19.6538 32.941 19.4553C33.0233 19.2567 33.0655 19.0439 33.0651 18.8289C33.0657 18.614 33.0236 18.401 32.9413 18.2024C32.859 18.0038 32.7381 17.8236 32.5856 17.6721C32.4339 17.5195 32.2536 17.3986 32.0549 17.3162C31.8563 17.2337 31.6433 17.1915 31.4282 17.192C31.2132 17.1915 31.0003 17.2336 30.8017 17.316C30.6032 17.3983 30.4229 17.5191 30.2713 17.6716L25.7714 22.1715C25.635 22.3079 25.45 22.3845 25.2571 22.3845C25.0643 22.3845 24.8793 22.3079 24.7429 22.1715L19.9856 17.4147C19.834 17.2622 19.6537 17.1413 19.4551 17.0589C19.2564 16.9766 19.0435 16.9344 18.8285 16.9349C18.6135 16.9345 18.4007 16.9767 18.2021 17.059C18.0036 17.1413 17.8233 17.2621 17.6716 17.4144C17.3623 17.7238 17.1926 18.1347 17.192 18.5713C17.1914 18.7863 17.2334 18.9994 17.3158 19.198C17.3982 19.3966 17.5192 19.5769 17.6719 19.7284L22.4284 24.486C22.5706 24.6281 22.6415 24.8143 22.6418 25.0002Z" fill="#868686"/>
</svg>
