<svg width="291" height="302" viewBox="0 0 291 302" fill="none" xmlns="http://www.w3.org/2000/svg">
<rect x="1" y="12" width="290" height="290" rx="30" fill="#A9D6CE"/>
<path d="M207.738 172.933C240.953 141.138 240.953 89.5888 207.738 57.7941C174.523 25.9995 120.672 25.9995 87.4567 57.7941C54.2419 89.5888 54.2419 141.138 87.4567 172.933C120.672 204.727 174.523 204.727 207.738 172.933Z" fill="url(#paint0_linear)"/>
<path d="M280.17 197.03H10.0291C4.50621 197.03 0.0290527 201.508 0.0290527 207.03V251.176C0.0290527 256.699 4.50621 261.176 10.0291 261.176H280.17C285.693 261.176 290.17 256.699 290.17 251.176V207.03C290.17 201.508 285.693 197.03 280.17 197.03Z" fill="#6EB0A0"/>
<path d="M245.481 70.1863C239.317 70.1906 233.167 62.0476 239.049 60.2024C239.429 60.0833 239.832 60.0354 240.26 60.0738C241.595 60.1904 242.5 61.4847 243.098 62.8511C243.177 63.0379 243.315 63.1963 243.493 63.3044C243.671 63.4126 243.88 63.4651 244.09 63.4547C244.3 63.4443 244.502 63.3716 244.668 63.2465C244.833 63.1215 244.953 62.9503 245.013 62.7567C246.289 58.4796 248.9 51.9473 252.945 51.9473C257.129 51.9473 257.268 59.4183 256.961 63.9732C256.952 64.1203 256.995 64.2659 257.081 64.388C257.167 64.5101 257.293 64.6019 257.438 64.6496C257.584 64.6973 257.742 64.6983 257.888 64.6525C258.034 64.6066 258.161 64.5163 258.249 64.3954C259.351 62.84 260.964 61.3458 262.92 61.7791C263.214 61.8442 263.48 61.949 263.719 62.0872C268.049 64.5864 261.985 70.1748 256.986 70.1783L245.481 70.1863Z" fill="url(#paint1_linear)"/>
<path d="M30.3911 168.166C24.2156 168.17 18.056 159.965 23.9654 158.172C24.3341 158.06 24.7247 158.016 25.1379 158.053C26.4726 158.164 27.3778 159.459 27.9755 160.831C28.0551 161.017 28.1934 161.176 28.3712 161.284C28.549 161.392 28.7576 161.444 28.968 161.434C29.1784 161.424 29.3802 161.351 29.5455 161.226C29.7108 161.101 29.8313 160.93 29.8904 160.736C31.167 156.453 33.7783 149.921 37.8229 149.921C42.0067 149.921 42.146 157.398 41.8384 161.947C41.8304 162.094 41.8727 162.24 41.9589 162.362C42.0451 162.484 42.1705 162.576 42.3161 162.623C42.4617 162.671 42.6196 162.672 42.7659 162.626C42.9121 162.58 43.0388 162.49 43.1267 162.369C44.2292 160.814 45.8424 159.325 47.7689 159.753C48.0647 159.818 48.3314 159.924 48.5718 160.063C52.8973 162.57 46.8334 168.154 41.8338 168.158L30.3911 168.166Z" fill="url(#paint2_linear)"/>
<path d="M251.975 167.186C245.804 167.182 239.653 159.001 245.55 157.182C245.922 157.067 246.318 157.021 246.736 157.059C248.071 157.176 248.982 158.47 249.574 159.836C249.651 160.026 249.788 160.187 249.966 160.298C250.145 160.408 250.355 160.462 250.567 160.451C250.779 160.441 250.982 160.367 251.148 160.239C251.313 160.112 251.432 159.938 251.489 159.742C252.765 155.487 255.353 148.971 259.415 148.971C263.599 148.971 263.738 156.442 263.437 160.997C263.426 161.145 263.467 161.291 263.552 161.415C263.637 161.538 263.763 161.631 263.909 161.679C264.055 161.727 264.213 161.728 264.36 161.681C264.506 161.634 264.633 161.542 264.719 161.419C265.822 159.864 267.435 158.37 269.39 158.803C269.681 158.867 269.943 158.97 270.18 159.106C274.524 161.59 268.449 167.194 263.445 167.192L251.975 167.186Z" fill="url(#paint3_linear)"/>
<path d="M41.7993 51.8224C35.6238 51.8267 29.4614 43.6174 35.3719 41.8279C35.7394 41.7166 36.1286 41.6727 36.5403 41.7099C37.8808 41.821 38.786 43.1153 39.3837 44.4873C39.4618 44.6747 39.5993 44.8341 39.7768 44.9429C39.9544 45.0518 40.163 45.1047 40.3736 45.0943C40.5841 45.0839 40.786 45.0106 40.9508 44.8848C41.1157 44.759 41.2353 44.587 41.2928 44.3929C42.5694 40.1102 45.1807 33.5779 49.2253 33.5779C53.4091 33.5779 53.5484 41.0545 53.2466 45.6038C53.2386 45.7509 53.2809 45.8965 53.3671 46.0186C53.4533 46.1407 53.5787 46.2325 53.7243 46.2802C53.8699 46.3279 54.0278 46.3289 54.1741 46.283C54.3203 46.2372 54.447 46.1469 54.5349 46.0259C55.6374 44.4706 57.2448 42.982 59.1771 43.4097C59.4717 43.4749 59.7375 43.5803 59.977 43.7191C64.3027 46.226 58.2358 51.811 53.2362 51.8144L41.7993 51.8224Z" fill="url(#paint4_linear)"/>
<path d="M214.932 39.3426C215.946 35.2565 213.307 31.1573 209.039 30.1869C204.77 29.2165 200.488 31.7422 199.474 35.8283C198.46 39.9145 201.099 44.0136 205.368 44.9841C209.636 45.9545 213.918 43.4287 214.932 39.3426Z" fill="white"/>
<path d="M45.346 130.125C47.6632 126.558 46.5214 121.869 42.7959 119.651C39.0703 117.433 34.1717 118.526 31.8545 122.092C29.5374 125.659 30.6791 130.348 34.4047 132.566C38.1303 134.784 43.0289 133.691 45.346 130.125Z" fill="white"/>
<path d="M258.927 125.961C259.937 121.875 257.296 117.777 253.027 116.81C248.757 115.842 244.477 118.371 243.466 122.457C242.455 126.544 245.097 130.642 249.366 131.609C253.635 132.577 257.916 130.048 258.927 125.961Z" fill="white"/>
<path d="M147.67 221.093C190.733 221.093 225.642 218.455 225.642 215.2C225.642 211.945 190.733 209.306 147.67 209.306C104.607 209.306 69.6975 211.945 69.6975 215.2C69.6975 218.455 104.607 221.093 147.67 221.093Z" fill="#4F9987"/>
<path d="M212.726 138.856C183.05 178.956 191.987 210.367 171.636 216.066C170.753 216.321 169.837 216.456 168.915 216.466H168.595H168.566H168.363H168.311H168.149C168.047 216.461 167.947 216.45 167.847 216.433L167.632 216.405L167.493 216.378L167.238 216.328L167.042 216.281C167.018 216.275 166.993 216.272 166.968 216.272V216.272C166.939 216.272 166.91 216.268 166.882 216.26L166.744 216.222L166.657 216.194L166.361 216.1L166.135 216.011L166.054 215.978L165.798 215.872L165.52 215.733L165.224 215.578L164.934 215.405L164.725 215.267C164.635 215.212 164.547 215.153 164.464 215.089C164.262 214.949 164.069 214.798 163.883 214.639L163.698 214.483L163.535 214.328C163.442 214.245 163.35 214.15 163.257 214.056L163.129 213.922C163.03 213.822 162.932 213.717 162.839 213.606C162.746 213.495 162.566 213.289 162.439 213.128L162.311 212.961L162.276 212.917L162.125 212.717C162.061 212.628 161.998 212.545 161.94 212.456C161.794 212.25 161.649 212.034 161.51 211.812L161.371 211.584L161.191 211.284L161.069 211.067C160.767 210.54 160.489 209.984 160.216 209.401C160.164 209.29 160.112 209.179 160.065 209.068C159.932 208.762 159.798 208.451 159.671 208.134C159.63 208.04 159.595 207.946 159.56 207.851C159.526 207.757 159.485 207.673 159.45 207.579L159.346 207.307C159.288 207.135 159.224 206.968 159.16 206.79C159.096 206.612 159.067 206.535 159.027 206.401C158.986 206.268 158.939 206.157 158.899 206.029C158.858 205.901 158.777 205.668 158.719 205.474C158.661 205.279 158.655 205.263 158.62 205.163C158.586 205.063 158.533 204.885 158.493 204.74C158.452 204.596 158.406 204.457 158.365 204.313C158.197 203.757 158.04 203.157 157.883 202.563L157.762 202.091L157.587 201.369C157.547 201.208 157.506 201.047 157.471 200.885C157.437 200.724 157.373 200.474 157.326 200.269C157.28 200.063 157.239 199.858 157.193 199.647C157.146 199.436 157.117 199.319 157.083 199.147C156.967 198.591 156.862 198.075 156.752 197.53C156.711 197.325 156.676 197.125 156.636 196.919C156.611 196.795 156.589 196.673 156.566 196.552C156.536 196.394 156.503 196.235 156.479 196.075V196.075C154.278 184.061 153.395 169.987 150.11 163.401C148.798 160.772 145.407 160.767 144.095 163.395C137.794 176.018 140.33 216.204 125.469 216.533C124.486 216.545 123.508 216.412 122.567 216.139C102.217 210.456 111.153 179.044 81.4834 138.928C51.8136 98.8123 75.3208 53.9414 100.905 55.3857C107.704 55.7744 114.424 56.9896 120.902 59.0018C133.808 62.9798 147.56 63.7445 160.86 61.2236C164.123 60.6055 167.343 59.7911 170.499 58.7851C173.678 57.7761 176.931 56.992 180.23 56.4393C180.246 56.4368 180.261 56.4355 180.276 56.4355V56.4355C180.292 56.4355 180.307 56.4342 180.323 56.4317C184.611 55.7177 188.957 55.364 193.31 55.3745C218.929 55.3134 242.396 98.7512 212.726 138.856Z" fill="white"/>
<path d="M84.974 86.9967C81.4255 95.6244 73.8768 96.8022 75.8835 87.6917V87.6917C80.3053 67.617 89.7232 60.3126 102.576 60.2904C106 60.2904 109.091 60.84 112.05 61.644C117.855 63.2212 117.366 69.1522 111.49 67.867V67.867C100.42 65.4461 90.4799 73.6096 84.974 86.9967Z" fill="#E8E8E8"/>
<path d="M212.725 138.856C183.05 178.955 191.986 210.367 171.636 216.066C170.753 216.321 169.836 216.455 168.914 216.466H168.595H168.566H168.363H168.311H168.148C168.047 216.461 167.946 216.45 167.846 216.433L167.632 216.405L167.493 216.377L167.237 216.328L167.042 216.281C167.017 216.275 166.992 216.272 166.967 216.272V216.272C166.938 216.272 166.91 216.268 166.882 216.26L166.744 216.222L166.657 216.194L166.361 216.1L166.135 216.011L166.053 215.978L165.798 215.872L165.52 215.733L165.224 215.578L164.933 215.405L164.725 215.267C164.634 215.212 164.547 215.152 164.463 215.089C164.262 214.949 164.068 214.798 163.883 214.639L163.697 214.483L163.535 214.328C163.442 214.244 163.349 214.15 163.256 214.056L163.129 213.922C163.03 213.822 162.931 213.717 162.839 213.606C162.746 213.495 162.566 213.289 162.438 213.128L162.311 212.961L162.276 212.917L162.125 212.717C162.061 212.628 161.997 212.545 161.939 212.456C161.794 212.25 161.649 212.034 161.51 211.812L161.371 211.584L161.191 211.284L161.069 211.067C160.767 210.54 160.489 209.984 160.216 209.401C160.164 209.29 160.111 209.179 160.065 209.068C159.931 208.762 159.798 208.451 159.67 208.134C159.63 208.04 159.595 207.945 159.56 207.851C159.525 207.757 159.485 207.673 159.45 207.579L159.345 207.307C159.287 207.134 159.224 206.968 159.16 206.79C159.096 206.612 159.067 206.535 159.026 206.401C158.986 206.268 158.939 206.157 158.899 206.029C158.858 205.901 158.777 205.668 158.719 205.474C158.661 205.279 158.655 205.263 158.62 205.163C158.585 205.063 158.533 204.885 158.492 204.74C158.452 204.596 158.405 204.457 158.365 204.313C158.196 203.757 158.04 203.157 157.883 202.563L157.761 202.091L157.587 201.369C157.546 201.208 157.506 201.047 157.471 200.885C157.436 200.724 157.372 200.474 157.326 200.269C157.28 200.063 157.239 199.858 157.193 199.647C157.146 199.436 157.117 199.319 157.082 199.147C156.966 198.591 156.862 198.075 156.751 197.53C156.711 197.325 156.676 197.125 156.635 196.919C156.611 196.795 156.589 196.673 156.566 196.552C156.536 196.394 156.503 196.235 156.479 196.075V196.075C154.066 182.905 153.236 167.259 149.091 161.716C148.083 160.367 146.128 160.359 145.118 161.706C140.75 167.527 140.061 184.557 137.335 198.109C136.805 200.744 133.031 197.759 133.262 195.081V195.081C134.915 175.634 137.417 153.415 148.036 153.415C156.305 153.415 158.069 179.961 162.374 198.525C163.425 202.591 165.728 207.818 172.471 206.89C180.735 205.751 181.628 183.71 190.623 156.092C198.845 130.841 213.927 129.091 209.232 96.0683C205.341 68.6773 186.434 64.1674 170.732 62.2634C168.932 62.0452 168.759 59.258 170.487 58.7074V58.7074C173.666 57.6983 176.919 56.9143 180.218 56.3616C180.234 56.359 180.249 56.3577 180.265 56.3577V56.3577C180.28 56.3577 180.295 56.3565 180.311 56.3539C184.599 55.64 188.945 55.2863 193.298 55.2968C218.929 55.3135 242.395 98.7512 212.725 138.856Z" fill="#E8E8E8"/>
<path d="M47.2176 236.319C66.5842 236.319 82.284 234.421 82.284 232.081C82.284 229.74 66.5842 227.842 47.2176 227.842C27.8509 227.842 12.1511 229.74 12.1511 232.081C12.1511 234.421 27.8509 236.319 47.2176 236.319Z" fill="#4F9987"/>
<path d="M56.856 126.197H90.6458C91.0164 126.179 91.3719 126.051 91.6623 125.829C91.9527 125.608 92.1634 125.306 92.2648 124.964C92.3171 124.821 92.332 124.668 92.3081 124.518C92.2842 124.368 92.2223 124.226 92.1279 124.104C92.0334 123.982 91.9092 123.885 91.7661 123.82C91.6231 123.755 91.4655 123.724 91.3073 123.731H57.5117C57.1421 123.75 56.7879 123.879 56.4986 124.1C56.2094 124.321 55.9996 124.623 55.8985 124.964C55.8447 125.107 55.8287 125.261 55.8519 125.411C55.8752 125.562 55.9369 125.704 56.0317 125.826C56.1265 125.948 56.2514 126.046 56.3952 126.111C56.539 126.175 56.6973 126.205 56.856 126.197Z" fill="#122029"/>
<path d="M52.7244 141.65H86.52C86.8904 141.637 87.2466 141.51 87.5367 141.289C87.8269 141.069 88.0358 140.765 88.1332 140.423C88.187 140.279 88.203 140.126 88.1798 139.975C88.1565 139.825 88.0948 139.682 88 139.56C87.9052 139.438 87.7803 139.34 87.6365 139.276C87.4927 139.211 87.3344 139.181 87.1757 139.189H53.4149C53.0443 139.207 52.6888 139.336 52.3984 139.557C52.108 139.778 51.8973 140.081 51.7959 140.423C51.7443 140.563 51.7291 140.713 51.7515 140.861C51.7739 141.008 51.8332 141.148 51.9245 141.269C52.0157 141.39 52.1362 141.487 52.2755 141.554C52.4148 141.62 52.5688 141.653 52.7244 141.65Z" fill="#122029"/>
<path d="M92.7377 88.4486C93.0809 88.7743 93.4425 89.1122 93.8972 89.2432C94.0871 89.2979 94.3326 89.356 94.6499 89.4137C95.9324 89.647 97.5804 89.0138 97.2786 88.6027C97.0465 88.2861 96.4546 88.4472 95.9672 88.2806C95.4797 88.1139 97.4585 87.1696 98.1722 86.5364C99.4141 85.4255 97.8241 82.7703 95.973 82.9425C94.7188 83.0592 93.1529 84.1117 92.1814 85.3243C91.4046 86.2939 91.8364 87.5936 92.7377 88.4486V88.4486Z" fill="#F4B595"/>
<path d="M111.833 93.765C111.322 93.3043 110.727 92.8547 110.374 92.2646C110.298 92.1375 110.216 91.99 110.126 91.8189C109.499 90.6191 109.703 88.8027 110.236 88.9805C110.643 89.1193 110.643 89.747 110.968 90.1803C111.293 90.6135 111.705 88.3861 112.204 87.4863C113.068 85.9309 116.376 86.7308 116.73 88.5972C116.974 89.8864 116.2 92.1775 115.101 93.7458C114.322 94.8564 112.839 94.6737 111.833 93.765V93.765Z" fill="#F4B595"/>
<path d="M66.9529 94.6023C67.4946 92.8676 69.856 90.9714 71.5078 91.729C72.665 92.2597 74.0116 92.8403 75.2967 93.3067C76.9521 93.9075 78.7402 93.5094 80.2684 92.6342C81.5536 91.8981 82.8835 91.2345 84.2513 90.6469C86.5121 89.5952 88.7184 88.4393 90.8622 87.1833C91.1278 87.0277 91.4628 87.0215 91.7214 87.1884V87.1884C92.4404 87.6527 92.2069 90.4087 91.5354 90.9394C88.5558 93.2939 83.1618 97.3108 79.2812 98.7979C78.4949 99.0992 77.6375 99.0922 76.8167 98.9047L69.4822 97.2287C67.7941 96.843 66.4367 96.2551 66.9529 94.6023V94.6023Z" fill="#0386D1"/>
<path d="M90.2803 81.9618C90.3118 81.2062 90.8432 81.247 91.0757 81.9667L91.3193 82.7204C91.3352 82.77 91.3406 82.8221 91.3352 82.8737C91.3298 82.9254 91.3136 82.9754 91.2876 83.021C91.2617 83.0665 91.2265 83.1067 91.1841 83.139C91.1417 83.1713 91.0929 83.1952 91.0407 83.2092V83.2092C90.6575 83.3152 90.2757 83.0428 90.2712 82.6452C90.2689 82.4337 90.2704 82.1975 90.2803 81.9618Z" fill="#F4B595"/>
<path d="M76.8127 86.4621C76.3304 88.0251 76.5584 89.8288 77.9316 90.7175C78.1401 90.8525 78.3563 90.9774 78.5793 91.0916C78.9744 91.294 79.3868 91.4605 79.8111 91.59C80.9929 91.9505 82.1295 91.1328 82.545 89.9692V89.9692L82.8816 89.0305L82.9686 88.7916V88.7916C83.2666 87.9573 83.2539 87.0263 82.7885 86.2724C82.6572 86.0596 82.5179 85.8512 82.371 85.6476L82.1679 85.381C82.1214 85.3255 82.0808 85.2699 82.0344 85.2199C81.7674 84.8974 81.4644 84.5761 81.1267 84.2832C79.5009 82.8729 77.4474 84.4056 76.8127 86.4621V86.4621Z" fill="#F4B595"/>
<path d="M81.5083 85.2408C80.413 85.2843 79.9988 86.6938 80.8965 87.3229L82.1288 88.1865C82.5632 88.491 83.1682 88.2984 83.3466 87.7988V87.7988C83.4169 87.6019 83.4091 87.3847 83.3163 87.1974C83.0483 86.656 82.7321 86.1375 82.3711 85.6476L82.1681 85.381V85.381C82.0829 85.2791 81.9582 85.2229 81.8255 85.2282L81.5083 85.2408Z" fill="#ED9581"/>
<path d="M85.9006 71.2895C89.0981 71.5618 90.6227 74.9779 90.6227 78.187V84.67C90.6227 87.414 87.8199 88.886 86.0326 88.7471C82.609 88.4861 78.7443 87.4307 76.6669 82.5536C74.0888 76.5161 79.7873 70.7688 85.9006 71.2895Z" fill="#F4B595"/>
<path d="M95.0719 72.5987C94.3397 75.3263 91.2322 79.548 88.8182 78.0822V78.0822C85.7079 76.1992 85.5454 80.4318 87.0193 81.6872C88.1161 82.6204 86.6886 84.5145 85.7079 85.7699C84.176 87.7196 82.9226 88.2751 79.8064 87.0197C76.6903 85.7643 74.5839 83.0981 74.729 78.6877C74.874 74.2772 75.5472 69.7446 79.319 69.1169C83.0908 68.4892 88.1625 69.1169 92.0852 68.9614C94.4278 68.8685 95.5557 70.7963 95.0719 72.5987Z" fill="#1D3B50"/>
<path d="M67.1444 135.614C67.1579 135.548 67.2158 135.501 67.283 135.501V135.501C67.3627 135.501 67.4267 135.567 67.4244 135.647L66.7993 156.864C66.7741 157.72 66.639 158.569 66.3974 159.391L60.7736 178.515C60.2613 180.257 61.4267 182.045 63.2274 182.279V182.279C64.6112 182.459 65.9324 181.647 66.3962 180.331L74.1019 158.464L79.8235 131.08V131.08C80.0604 129.311 78.6559 127.742 76.8721 127.729C73.7445 127.706 68.8781 127.557 64.0715 126.952C60.7462 126.534 57.4918 128.659 56.8965 131.957V131.957L55.1639 157.108C55.116 157.803 54.9956 158.491 54.8047 159.161L49.2662 178.599C48.7948 180.254 49.9375 181.931 51.6499 182.098V182.098C52.9008 182.22 54.0757 181.48 54.5068 180.3L62.2235 159.164C62.3935 158.698 62.5286 158.22 62.6278 157.735L67.1444 135.614Z" fill="#1D3B50"/>
<path d="M84.8003 100.121C84.793 97.942 87.9816 96.7382 90.0003 97.5579C91.1348 98.0185 92.4464 98.5324 93.7232 98.9905C96.226 99.8886 98.9101 99.303 101.265 98.0673C102.163 97.596 103.08 97.1589 104.016 96.7571C106.19 95.7459 108.314 94.6385 110.381 93.4385C110.794 93.1987 111.315 93.193 111.702 93.4731V93.4731C112.567 94.0993 112.353 96.2147 111.517 96.8789C108.762 99.0683 103.662 102.907 99.7512 104.617C98.5163 105.158 97.1391 105.144 95.825 104.844L88.5421 103.182C86.4488 102.704 84.8076 102.268 84.8003 100.121V100.121Z" fill="#009CDA"/>
<path d="M65.9085 182.299C64.8179 181.662 63.5594 181.336 62.2817 181.361C61.3623 181.385 60.7756 181.478 60.4068 181.575C59.9991 181.682 59.7704 182.042 59.6734 182.453V182.453C59.3016 184.025 60.4941 185.532 62.1096 185.532H66.2102C67.7944 185.538 67.922 183.449 65.9085 182.299Z" fill="white"/>
<path d="M54.1635 182.299C53.0661 181.658 51.7987 181.334 50.5135 181.366C49.096 181.404 48.6056 181.58 48.4368 181.689C48.3658 181.735 48.3366 181.818 48.3116 181.899V181.899C47.7537 183.706 49.1052 185.538 50.9971 185.538H54.471C56.0552 185.538 56.1887 183.449 54.1635 182.299Z" fill="white"/>
<path d="M79.415 89.8424C81.2284 90.5136 83.0359 91.3865 84.2555 92.887L84.5269 93.221C86.1368 95.2018 86.7692 97.8021 86.2489 100.301L80.0305 130.166C79.1859 134.222 75.9048 137.31 71.7658 137.118C69.5546 137.015 66.8871 136.748 63.8806 136.177C59.0737 135.264 56.2332 130.468 57.2994 125.692C59.8132 114.434 63.4527 103.858 66.9868 94.1818C67.8982 91.6864 69.9833 89.805 72.5549 89.1383L72.8742 89.0555C75.0486 88.4917 77.3084 89.0626 79.415 89.8424V89.8424Z" fill="#009CDA"/>
<path d="M90.7765 83.9078C90.7036 83.5393 90.405 83.266 90.0428 83.1666V83.1666C89.2705 82.9545 88.4954 83.6061 88.4077 84.4022C88.2737 85.6176 87.8136 87.191 86.4121 88.0506C85.9911 88.3088 85.977 88.9583 86.4709 88.9583V88.9583C87.0443 88.9583 87.6112 88.8408 88.1334 88.6139C89.6422 87.8789 91.2405 86.2544 90.7765 83.9078Z" fill="#009CDA"/>
<path d="M88.8702 83.6924C88.8005 83.6924 81.9822 83.2591 74.5546 77.4044C74.5208 77.383 74.492 77.355 74.4702 77.3223C74.4483 77.2895 74.4339 77.2528 74.4278 77.2144C74.4218 77.176 74.4242 77.1368 74.4349 77.0993C74.4456 77.0619 74.4645 77.027 74.4901 76.9969C74.5158 76.9669 74.5478 76.9423 74.5841 76.9248C74.6203 76.9073 74.6599 76.8973 74.7005 76.8954C74.741 76.8935 74.7815 76.8998 74.8193 76.9138C74.8572 76.9278 74.8915 76.9492 74.9202 76.9767C82.2085 82.7148 88.8469 83.1314 88.8992 83.1369C88.9761 83.1369 89.0499 83.1662 89.1043 83.2183C89.1587 83.2703 89.1893 83.341 89.1893 83.4146C89.1893 83.4883 89.1587 83.559 89.1043 83.611C89.0499 83.6631 88.9761 83.6924 88.8992 83.6924H88.8702Z" fill="white"/>
<path d="M262.827 232.081C262.827 234.086 248.726 235.713 231.329 235.713C213.933 235.713 199.826 234.086 199.826 232.081C199.826 230.075 213.933 228.448 231.329 228.448C248.726 228.448 262.827 230.07 262.827 232.081Z" fill="#4F9987"/>
<path d="M242.106 221.929C242.383 222.061 242.403 222.421 242.209 222.66C242.136 222.749 242.066 222.84 241.998 222.932C241.899 223.068 241.818 223.227 241.732 223.372C241.619 223.561 241.462 223.803 241.444 223.849C240.521 225.915 238.751 228.437 237.184 229.159C235.881 229.761 235.288 229.507 235.035 229.25C234.883 229.095 234.944 228.875 235.09 228.715V228.715L235.734 227.976C236.575 227.009 237.3 226.143 237.62 225.676C238.158 224.908 238.753 224.179 239.401 223.493L-nan -nanL-nan -nanL239.401 223.493C240.33 222.515 241.322 221.704 241.873 221.827C241.919 221.835 241.964 221.851 242.004 221.873C242.038 221.892 242.071 221.912 242.106 221.929V221.929Z" fill="#F4B595"/>
<path d="M234.074 193.098C233.981 193.703 233.854 194.347 233.691 195.008C233.186 197.114 232.396 199.408 231.625 201.417C230.304 204.853 230.365 209.108 229.787 212.743C229.171 216.625 227.547 221.111 226.79 223.072C226.553 223.686 225.962 224.076 225.304 224.076V224.076C224.375 224.076 223.634 223.302 223.676 222.374L224.871 195.392V195.392C225.026 191.886 227.185 188.496 230.68 188.166C231.779 188.063 232.773 188.151 233.36 188.621L233.448 188.698L233.506 188.759L233.587 188.848C233.664 188.939 233.734 189.036 233.796 189.137C234.312 190.026 234.33 191.437 234.074 193.098Z" fill="#F4B595"/>
<path d="M234.074 193.098V193.098C233.889 194.302 233.008 195.284 231.813 195.524C230.422 195.802 228.919 195.915 227.642 195.88C225.914 195.833 224.936 194.303 225.013 192.576V192.576C225.093 190.785 226.205 189.184 227.933 188.709C229.877 188.176 232.306 187.764 233.378 188.621L233.465 188.698L233.523 188.759C233.632 188.876 233.729 189.002 233.813 189.137C234.312 190.026 234.329 191.437 234.074 193.098Z" fill="#ED9581"/>
<path d="M226.534 221.928C226.811 222.062 226.833 222.423 226.639 222.661C226.566 222.75 226.496 222.841 226.429 222.934C226.33 223.068 226.25 223.227 226.164 223.37C226.051 223.56 225.893 223.803 225.875 223.849C224.952 225.915 223.182 228.437 221.616 229.159C220.312 229.761 219.72 229.507 219.466 229.25C219.314 229.095 219.375 228.875 219.521 228.715V228.715L220.165 227.976C221.006 227.009 221.732 226.143 222.051 225.676C222.589 224.908 223.185 224.179 223.832 223.493L-nan -nanL-nan -nanL223.832 223.493C224.761 222.515 225.753 221.704 226.304 221.827C226.351 221.835 226.397 221.852 226.438 221.875C226.47 221.892 226.501 221.912 226.534 221.928V221.928Z" fill="#F4B595"/>
<path d="M238.002 165.997C233.535 167.782 225.606 171.695 225.327 176.497C225.146 179.613 224.97 183.13 224.881 186.262C224.766 190.275 227.482 193.229 231.488 192.962C234.451 192.765 237.977 192.358 241.205 191.718C244.398 191.085 246.81 188.536 247.001 185.286C247.249 181.047 246.823 175.902 245.728 171.484C244.582 166.863 242.423 164.231 238.002 165.997V165.997Z" fill="#1D3B50"/>
<path d="M200.593 152.619C200.353 152.486 200.396 152.168 200.605 151.991C200.955 151.695 201.115 151.522 200.806 151.632C199.953 151.91 199.112 151.388 199.478 151.076C200.038 150.628 200.725 150.35 201.451 150.277C202.056 150.189 203.162 150.633 204.039 151.055C204.82 151.429 205.178 152.319 204.948 153.153L204.578 154.491C204.568 154.528 204.534 154.554 204.495 154.554V154.554C204.489 154.554 204.482 154.553 204.476 154.551C203.081 154.22 201.786 153.582 200.696 152.687C200.665 152.661 200.628 152.638 200.593 152.619V152.619Z" fill="#F4B595"/>
<path d="M219.798 151.377C219.267 153.009 220.133 154.772 221.755 155.331V155.331V155.331C223.059 155.783 224.503 155.354 225.255 154.196C227.092 151.37 230.145 145.872 229.655 141.177C229.634 140.976 229.557 140.786 229.426 140.634V140.634C229.301 140.488 229.135 140.385 228.952 140.328C227.907 140.005 225.745 139.444 224.315 139.79C223.416 140.008 223.038 140.972 222.772 141.857C222.708 142.069 222.638 142.302 222.561 142.556C221.949 144.58 220.935 147.882 219.798 151.377Z" fill="#009CDA"/>
<path d="M223.227 154.742C223.647 155.474 223.324 156.422 222.486 156.514V156.514C222.173 156.564 221.824 156.598 221.453 156.626C216.892 156.909 208.6 155.392 205.617 154.809V154.809C205.025 154.69 204.664 154.088 204.837 153.509L205.121 152.558C205.326 151.874 206.003 151.44 206.714 151.515V151.515C207.874 151.632 209.726 151.787 212.012 151.832C214.205 151.877 216.968 151.757 218.712 151.663C219.836 151.601 221.141 151.59 221.762 152.529C221.767 152.537 221.773 152.546 221.778 152.554L221.952 152.771C222.413 153.406 222.839 154.064 223.227 154.742Z" fill="#009CDA"/>
<path d="M224.115 155.849C223.998 156.007 223.847 156.136 223.665 156.211V156.211C223.037 156.472 222.41 155.98 222.314 155.307L221.952 152.771L221.735 151.252C221.656 150.699 221.619 150.14 221.649 149.582C221.699 148.64 221.795 147.7 221.935 146.766L222.46 143.267C222.531 142.79 222.764 141.899 222.903 141.436V141.436C223.168 140.55 223.422 140.002 224.321 139.784C225.748 139.439 227.904 140 228.956 140.323C229.14 140.38 229.307 140.483 229.432 140.629V140.629C229.563 140.781 229.64 140.97 229.66 141.17C230.283 147.157 225.15 154.443 224.115 155.849Z" fill="#0386D1"/>
<path d="M230.488 128.543C229.705 122.733 223.703 115.1 229.484 116.071V116.071C239.378 117.737 233.314 127.341 240.887 135.595C248.024 143.372 239.146 147.716 235.409 145.994C231.672 144.272 229.931 135.712 230.511 129.852C230.555 129.407 230.545 128.97 230.488 128.543Z" fill="#1D3B50"/>
<path d="M245.725 169.378C247.419 174.625 244.585 180.411 239.219 181.679C237.074 182.186 234.836 182.604 232.647 182.816L232.206 182.855C231.591 182.906 230.982 182.941 230.38 182.955C226.238 183.057 223.639 179.236 223.671 175.093L223.728 167.796L223.78 160.575L223.817 155.639C223.823 154.859 223.733 154.078 223.571 153.315C222.606 148.783 223.069 148.345 223.321 146.466L223.757 143.241C224.04 141.138 225.504 139.384 227.523 138.728V138.728L229.264 138.173L229.71 138.028L231.624 137.407C232.507 137.12 233.455 137.095 234.353 137.334V137.334V137.334C237.891 138.272 240.492 141.283 240.906 144.92L241.241 147.86L241.653 151.532L242.473 158.673C242.549 159.328 242.689 159.975 242.892 160.603L245.725 169.378Z" fill="#009CDA"/>
<path d="M231.9 146.644L234.3 146.505C235.559 146.432 236.644 147.393 236.724 148.652V148.652C236.761 149.24 236.553 149.818 236.145 150.259C235.737 150.7 235.162 150.968 234.548 151.004L234.472 151.008C233.858 151.044 233.254 150.844 232.793 150.454C232.332 150.063 232.052 149.513 232.015 148.925L231.872 146.675C231.871 146.659 231.884 146.645 231.9 146.644V146.644Z" fill="#0386D1"/>
<path d="M236.167 145.174L232.164 145.408C231.977 145.419 231.835 145.579 231.847 145.766C231.859 145.952 232.02 146.095 232.207 146.084L236.21 145.85C236.397 145.84 236.539 145.679 236.527 145.492C236.515 145.306 236.354 145.163 236.167 145.174Z" fill="#0386D1"/>
<path d="M232.592 182.573C232.621 182.703 232.529 182.826 232.396 182.838V182.838C232.287 182.848 232.188 182.777 232.164 182.67C228.751 167.511 229.057 145.486 229.26 138.321C229.262 138.228 229.323 138.154 229.412 138.125V138.125C229.558 138.078 229.706 138.178 229.702 138.331C229.499 145.476 229.206 167.462 232.592 182.573Z" fill="#0386D1"/>
<path d="M241.608 151.145C241.637 151.412 241.592 151.683 241.47 151.923C240.476 153.885 239.167 155.688 237.591 157.264C235.229 159.418 231.944 160.606 230.258 161.109C229.565 161.317 228.959 161.757 228.544 162.351C228.289 162.716 228.021 163.074 227.748 163.421C226.498 165.007 223.768 163.878 223.782 161.859V161.859C223.788 161.067 224.222 160.334 224.941 160.003C226.219 159.414 227.559 158.952 228.939 158.625C231.338 158.155 236.208 153.321 239.052 150.307C239.908 149.399 241.472 149.904 241.608 151.145V151.145Z" fill="#0386D1"/>
<path d="M221.21 122.782C221.21 120.452 218.646 119.338 218.066 121.594C217.928 122.131 217.865 122.716 217.914 123.347C217.917 123.397 217.921 123.447 217.926 123.496C218.182 126.385 221.21 125.682 221.21 122.782V122.782Z" fill="#1D3B50"/>
<path d="M232.972 136.929C232.983 137.011 232.965 137.095 232.919 137.165C232.751 137.422 232.567 137.669 232.368 137.906C231.847 138.534 231.191 139.048 230.446 139.414C230.308 139.482 230.167 139.544 230.024 139.601C228.915 140.044 227.806 139.224 227.465 138.078V138.078L226.885 136.157V136.157C226.776 135.797 226.787 135.409 226.943 135.067C227.189 134.528 227.477 134.009 227.807 133.513C228.228 132.862 228.764 132.287 229.391 131.813C229.542 131.697 229.703 131.597 229.872 131.511C230.737 131.075 231.614 131.815 231.863 132.752V132.752L232.972 136.929V136.929Z" fill="#F4B595"/>
<path d="M228.235 133.315C229.413 132.792 230.625 133.745 230.11 134.928C229.836 135.557 229.472 136.21 228.99 136.791C228.326 137.592 227.169 137.145 226.866 136.149V136.149C226.758 135.794 226.769 135.411 226.923 135.073C227.102 134.679 227.305 134.295 227.529 133.923C227.694 133.651 227.944 133.444 228.235 133.315V133.315Z" fill="#ED9581"/>
<path d="M233.065 130.674C232.748 131.411 232.339 132.109 231.846 132.752C231.496 133.188 231.108 133.595 230.685 133.968C230.54 134.096 230.395 134.218 230.244 134.335C229.816 134.673 229.36 134.978 228.881 135.246C228.233 135.61 227.551 135.915 226.844 136.157C225.688 136.552 224.489 136.822 223.269 136.962C222.748 137.026 222.218 136.983 221.715 136.835C221.212 136.688 220.748 136.439 220.353 136.107C219.958 135.774 219.642 135.365 219.426 134.906C219.209 134.447 219.097 133.949 219.097 133.446V121.677C219.097 121.376 219.237 121.085 219.492 120.926V120.926C226.769 116.199 236.25 123.203 233.065 130.674Z" fill="#F4B595"/>
<path d="M219.632 131.375C220.487 130.247 218.523 129.19 218.034 130.518L217.913 130.846C217.909 130.859 217.911 130.874 217.917 130.886C217.924 130.898 217.935 130.908 217.948 130.913L218.741 131.188C219.241 131.361 219.312 131.797 219.632 131.375V131.375Z" fill="#F4B595"/>
<path d="M233.064 130.674C232.855 131.164 232.604 131.637 232.314 132.087C232.037 132.518 231.923 133.042 232.055 133.538V133.538C232.413 134.889 231.092 135.818 230.407 134.6C230.358 134.513 230.312 134.425 230.267 134.335C229.902 133.517 229.603 132.674 229.374 131.813C229.061 130.569 229.072 129.663 229.536 129.591C231.712 129.174 232.484 124.12 229.594 124.364C227.134 124.569 228.022 127.175 226.797 127.141C226.681 127.136 226.568 127.105 226.468 127.049C226.367 126.994 226.281 126.917 226.217 126.825C225.184 125.464 224.418 124.519 222.039 124.003C220.985 123.773 220.181 123.459 219.629 123.093C219.287 122.866 219.138 122.458 219.138 122.047V121.677C219.138 121.377 219.285 121.096 219.532 120.926V120.926C226.768 116.199 236.25 123.203 233.064 130.674Z" fill="#1D3B50"/>
<path d="M219.379 134.779C218.701 132.876 220.643 131.37 222.639 131.059V131.059C224.408 130.783 226.345 131.402 226.677 133.161C226.753 133.565 226.797 133.995 226.789 134.439C226.767 135.687 225.815 136.69 224.581 136.876C223.769 136.998 222.709 137.019 221.447 136.74C220.318 136.489 219.704 135.691 219.379 134.779Z" fill="#009CDA"/>
<path d="M225.126 131.357C225.049 131.368 224.971 131.348 224.909 131.303C224.847 131.259 224.806 131.192 224.796 131.118C224.785 131.045 224.805 130.97 224.852 130.911C224.899 130.851 224.968 130.812 225.045 130.802C225.121 130.802 232.769 128.613 236.21 124.519C236.258 124.462 236.328 124.425 236.405 124.418C236.482 124.41 236.559 124.431 236.619 124.478C236.679 124.524 236.717 124.592 236.725 124.665C236.733 124.738 236.711 124.812 236.662 124.869C233.105 129.102 225.527 131.246 225.208 131.335L225.126 131.357Z" fill="white"/>
<path d="M226.101 135.768C226.034 135.766 225.969 135.743 225.917 135.702C225.865 135.66 225.83 135.603 225.817 135.54C225.803 135.468 225.82 135.393 225.864 135.333V135.333C225.951 135.212 226.121 135.207 226.267 135.178C227.524 134.928 233.879 133.445 237.353 129.513C237.402 129.456 237.473 129.421 237.55 129.414C237.626 129.407 237.703 129.43 237.762 129.477C237.821 129.524 237.858 129.592 237.866 129.665C237.873 129.739 237.849 129.812 237.8 129.869C233.813 134.385 226.467 135.707 226.153 135.762L226.101 135.768Z" fill="white"/>
<path d="M224.525 160.849L195.899 141.797C195.03 141.219 193.827 141.434 193.214 142.28C192.6 143.125 192.807 144.279 193.677 144.857L222.302 163.909C223.171 164.488 224.374 164.272 224.988 163.427C225.601 162.581 225.394 161.427 224.525 160.849Z" fill="#122029"/>
<path d="M222.042 157.6L202.781 144.78C201.246 143.759 199.125 144.14 198.042 145.631C196.959 147.123 197.324 149.159 198.859 150.18L218.12 163C219.655 164.021 221.776 163.64 222.859 162.149C223.942 160.658 223.577 158.621 222.042 157.6Z" fill="#1D3B50"/>
<path d="M227.18 158.881C227.529 159.113 227.767 159.468 227.842 159.868C227.917 160.268 227.823 160.68 227.581 161.014L223.519 166.568C223.276 166.903 222.905 167.131 222.487 167.204C222.068 167.276 221.637 167.187 221.288 166.955C220.938 166.723 220.7 166.367 220.624 165.967C220.548 165.566 220.642 165.153 220.884 164.819L224.946 159.264C225.19 158.93 225.562 158.702 225.981 158.63C226.399 158.559 226.831 158.649 227.18 158.881Z" fill="#122029"/>
<path d="M179.777 117.682L180.253 117.726C182.88 118.031 185.38 118.98 187.511 120.482C189.642 121.984 191.331 123.988 192.415 126.299C193.499 128.61 193.94 131.149 193.696 133.672C193.452 136.194 192.531 138.613 191.023 140.695L190.861 140.917L190.489 141.384C189.726 142.321 188.843 143.163 187.86 143.889C185.894 145.356 183.584 146.342 181.129 146.761C180.479 146.873 179.822 146.943 179.162 146.972C176.925 147.077 174.69 146.711 172.617 145.9C170.543 145.089 168.68 143.853 167.159 142.279C165.638 140.704 164.497 138.83 163.814 136.788C163.132 134.745 162.926 132.584 163.21 130.457C163.326 129.593 163.52 128.74 163.79 127.908L-nan -nanL-nan -nanL163.79 127.908C163.987 127.312 164.222 126.727 164.493 126.158C164.871 125.382 165.32 124.638 165.833 123.936C166.751 122.663 167.875 121.538 169.164 120.603C169.413 120.426 169.663 120.253 169.924 120.087C172.834 118.242 176.311 117.394 179.789 117.682H179.777Z" fill="#83E0DD"/>
<path opacity="0.2" d="M179.789 117.682C179.785 117.682 179.783 117.687 179.786 117.69L191.749 130.078C193.042 131.417 193.86 133.217 193.502 135.044C193.105 137.064 192.265 138.992 191.023 140.695L190.861 140.917V140.917C190.664 141.164 190.295 141.182 190.075 140.955L177.102 127.52C173.396 123.682 174.473 117.242 179.789 117.682V117.682V117.682Z" fill="white"/>
<path d="M200.134 153.637C199.106 152.737 199.78 151.893 200.325 151.415C200.493 151.279 200.693 151.183 200.908 151.135C201.123 151.088 201.347 151.091 201.561 151.143C202.443 151.404 204.932 153.704 204.689 154.854C204.41 156.153 201.915 155.192 200.134 153.637Z" fill="#F4B595"/>
<path d="M243.009 142.636C243.263 143.788 242.979 146.555 242.43 147.6C240.723 150.848 236.469 158.036 231.637 159.354C231.243 159.462 230.846 159.544 230.453 159.654C228.146 160.298 219.586 162.551 214.841 161.888C213.962 161.765 213.453 160.912 213.57 160.032V160.032C213.7 159.058 214.549 158.349 215.531 158.335C217.696 158.306 219.853 158.066 221.969 157.62C223.217 157.386 224.45 157.088 225.662 156.727C227.563 156.161 229.142 154.866 230.272 153.236L236.525 144.218C238.754 141.003 242.164 138.816 243.009 142.636V142.636Z" fill="#009CDA"/>
<path d="M209.238 160.753C209.919 161.378 210.768 161.809 211.69 161.999V161.999C213.402 162.353 214.708 160.799 215.116 159.099L215.126 159.056C215.247 158.553 215.304 158.033 215.217 157.523C215.171 157.253 215.111 156.985 215.035 156.72C214.935 156.386 214.319 156.08 214.118 156.305C214.076 156.352 214.067 156.418 214.058 156.48V156.48C213.948 157.185 213.217 157.609 212.525 157.437C212.235 157.365 211.942 157.304 211.646 157.253C211.054 157.192 210.457 157.192 209.865 157.253C208.02 157.631 207.77 159.447 209.238 160.753Z" fill="#F4B595"/>
<path d="M167.707 43.9942C171.798 44.6555 174.695 48.3473 174.365 52.4778V52.4778C174.111 55.6586 171.986 58.4051 168.912 59.2604C167.365 59.6908 165.791 60.0916 164.191 60.4627L163.547 60.6071V60.6071C158.371 61.7822 153.524 57.8627 153.219 52.5636L153.169 51.7058C152.946 47.824 155.541 44.2737 159.41 43.8819V43.8819L160.129 43.8097C161.174 43.7208 162.27 43.6597 163.367 43.6542H163.918H164.348C165.32 43.678 166.29 43.7671 167.249 43.9208L167.597 43.9763L167.707 43.9942Z" fill="#009CDA"/>
<path d="M167.058 52.9694H169.463C170.724 52.9694 171.746 53.9915 171.746 55.2523V55.2523C171.746 55.8416 171.502 56.4068 171.066 56.8234C170.631 57.2401 170.041 57.4742 169.425 57.4742H169.35C168.734 57.4742 168.144 57.2401 167.708 56.8234C167.273 56.4068 167.029 55.8416 167.029 55.2523V52.9984C167.029 52.9823 167.042 52.9694 167.058 52.9694V52.9694Z" fill="#0386D1"/>
<path d="M171.407 51.7584H167.396C167.209 51.7584 167.058 51.9101 167.058 52.0973C167.058 52.2844 167.209 52.4361 167.396 52.4361H171.407C171.595 52.4361 171.746 52.2844 171.746 52.0973C171.746 51.9101 171.595 51.7584 171.407 51.7584Z" fill="#0386D1"/>
<path d="M163.918 43.6263C164.071 43.6357 164.191 43.7627 164.191 43.9162V60.2048C164.191 60.3555 164.086 60.4861 163.939 60.519V60.519C163.738 60.5642 163.547 60.4111 163.547 60.2048V43.9977C163.547 43.7926 163.713 43.6263 163.918 43.6263V43.6263V43.6263Z" fill="#0386D1"/>
<path d="M162.904 39.0659C161.9 39.0659 161.086 39.8797 161.086 40.8835V40.8835C161.086 41.935 161.981 42.7732 163.006 42.5417C164.37 42.2338 165.654 41.7181 166.335 41.1052C166.541 40.9207 166.622 40.6447 166.622 40.3687V40.3687C166.622 39.6492 166.039 39.0659 165.319 39.0659H162.904Z" fill="#ED9581"/>
<path d="M169.98 32.0767C170.027 31.526 170.151 30.9728 170.494 30.5396C170.799 30.1552 171.261 29.7279 171.879 29.5785C173.098 29.2841 173.04 32.2169 172.309 34.3444V34.3444C171.659 36.235 169.789 34.3106 169.96 32.3187L169.98 32.0767Z" fill="#ED9581"/>
<path d="M157.732 32.0264C157.686 31.5086 157.573 30.9884 157.258 30.575C156.958 30.1817 156.488 29.7325 155.835 29.5785C154.587 29.2841 154.674 32.2169 155.405 34.3444V34.3444C156.057 36.2411 157.936 34.3018 157.757 32.3042L157.732 32.0264Z" fill="#ED9581"/>
<path d="M163.877 41.2101C167.574 41.2101 170.568 37.4107 170.568 34.0612V33.1752C170.568 29.4801 167.573 26.4846 163.877 26.4846V26.4846C160.182 26.4846 157.187 29.4801 157.187 33.1752V34.0556C157.187 37.4051 160.187 41.2101 163.877 41.2101Z" fill="#F4B595"/>
<path d="M169.515 28.3861C169.5 30.4371 171.802 30.4454 171.829 28.3946C171.829 28.355 171.829 28.3155 171.829 28.2759C171.809 27.1001 171.686 25.8163 171.686 24.6404V24.6404C171.686 24.0037 171.542 23.3746 171.264 22.7962C170.289 20.9965 166.164 18.9079 160.413 20.0189C156.43 20.7884 155.737 22.9627 155.92 24.6011C156.042 25.7006 156.097 26.9158 156.015 28.019C155.979 28.4914 156.002 29.0442 156.139 29.6562C156.418 30.8952 157.356 32.0158 157.747 30.8076V30.8076C158.15 29.5635 159.44 27.1938 160.737 27.3556C162.796 27.6124 165.748 27.7225 168.532 26.8954C169.281 26.6728 169.587 26.9113 169.539 27.6912C169.526 27.9058 169.517 28.1401 169.515 28.3861Z" fill="#1D3B50"/>
<path d="M161.928 28.201H161.852C159.795 27.9821 157.775 27.5155 155.84 26.8123C155.652 26.7316 155.502 26.5846 155.424 26.4017C155.345 26.2187 155.342 26.0137 155.417 25.8291C155.491 25.6444 155.637 25.4942 155.824 25.4095C156.011 25.3247 156.224 25.3119 156.421 25.3736C158.214 26.023 160.086 26.4559 161.991 26.6623C162.194 26.6849 162.38 26.78 162.512 26.9285C162.644 27.0769 162.712 27.2678 162.704 27.4626C162.695 27.6575 162.609 27.8419 162.464 27.9789C162.319 28.1158 162.125 28.1952 161.922 28.201H161.928Z" fill="#009CDA"/>
<path d="M165.99 28.1844C165.776 28.1947 165.566 28.1232 165.407 27.9857C165.248 27.8482 165.153 27.6559 165.142 27.4511C165.132 27.2464 165.206 27.0459 165.35 26.8938C165.494 26.7417 165.694 26.6504 165.908 26.6401C167.813 26.4163 169.68 25.9647 171.467 25.2959C171.66 25.2441 171.867 25.263 172.046 25.3489C172.225 25.4348 172.365 25.5814 172.437 25.7603C172.51 25.9392 172.51 26.1376 172.438 26.3166C172.366 26.4957 172.227 26.6427 172.048 26.729C170.122 27.4551 168.108 27.9423 166.053 28.1788L165.99 28.1844Z" fill="#009CDA"/>
<path d="M165.976 34.5171C163.278 34.9326 158.104 36.7148 159.356 39.1409C159.412 39.2507 159.474 39.3553 159.54 39.4535C159.554 39.4731 159.566 39.4913 159.58 39.5103C159.746 39.7316 160.956 41.2045 163.854 41.2045C166.189 41.2045 167.499 40.1498 168.016 39.6122C168.202 39.4184 168.334 39.1824 168.432 38.9322C168.486 38.7928 168.537 38.6523 168.584 38.511C169.376 36.1231 168.463 34.1342 165.976 34.5171V34.5171Z" fill="#009CDA"/>
<path d="M168.357 38.7327C168.316 38.7337 168.275 38.721 168.243 38.6967C168.21 38.6724 168.187 38.638 168.177 38.5994C168.167 38.5545 168.175 38.5074 168.2 38.4681C168.217 38.4406 168.242 38.4184 168.271 38.4035C168.296 38.3904 168.324 38.3848 168.351 38.3749C168.511 38.3157 169.127 38.0328 169.854 36.9885C169.883 36.9507 169.925 36.9248 169.973 36.9165C170.02 36.9082 170.07 36.9181 170.11 36.9441C170.149 36.971 170.176 37.0111 170.186 37.0565C170.196 37.1018 170.187 37.1489 170.162 37.1885C169.369 38.3209 168.681 38.6323 168.48 38.7098C168.447 38.7225 168.393 38.7327 168.357 38.7327V38.7327Z" fill="white"/>
<path d="M189.307 95.8307C190.353 94.6066 190.168 92.7574 188.9 91.7651L140.823 54.1469C140.723 54.0703 140.619 53.9998 140.51 53.9358C139.911 53.577 139.196 53.4395 138.499 53.5492C137.802 53.6589 137.171 54.0082 136.724 54.5316C136.277 55.0551 136.044 55.7167 136.07 56.3924C136.096 57.068 136.379 57.7114 136.865 58.2018C136.953 58.2908 137.046 58.3743 137.144 58.4518L185.414 96.2207C186.607 97.1541 188.323 96.9822 189.307 95.8307V95.8307Z" fill="#1D3B50"/>
<path d="M180.213 86.7502L178.355 88.9247C177.852 89.5127 177.939 90.376 178.548 90.8528C179.157 91.3296 180.058 91.2395 180.56 90.6514L182.418 88.4769C182.92 87.8889 182.834 87.0256 182.225 86.5488C181.616 86.072 180.715 86.1622 180.213 86.7502Z" fill="#122029"/>
<path d="M194.349 94.3528L186.913 88.5292C185.19 87.1794 182.64 87.4342 181.217 89.0983C179.795 90.7625 180.039 93.2059 181.762 94.5557L189.198 100.379C190.921 101.729 193.472 101.474 194.894 99.8102C196.317 98.146 196.072 95.7027 194.349 94.3528Z" fill="#1D3B50"/>
<path d="M201.967 89.2804C201.887 89.216 201.799 89.1602 201.706 89.1138C201.431 88.9724 201.117 88.9143 200.807 88.9471C200.598 88.9666 200.396 89.0257 200.211 89.1211C200.027 89.2165 199.864 89.3462 199.733 89.5026L196.797 92.9387C196.221 93.6123 196.323 94.6298 197.02 95.176V95.176C197.677 95.6903 198.623 95.5955 199.164 94.9609L202.188 91.419C202.321 91.2652 202.421 91.0876 202.482 90.8965C202.543 90.7053 202.564 90.5045 202.544 90.3056C202.523 90.1067 202.462 89.9137 202.363 89.7377C202.264 89.5617 202.129 89.4063 201.967 89.2804Z" fill="white"/>
<path d="M194.574 83.5146C194.492 83.4528 194.405 83.397 194.313 83.348C194.037 83.2092 193.724 83.1512 193.414 83.1813C193.206 83.2003 193.004 83.2592 192.821 83.3547C192.637 83.4502 192.476 83.5801 192.346 83.7368L189.403 87.1883C188.827 87.8628 188.93 88.8805 189.628 89.427V89.427C190.285 89.9414 191.23 89.8472 191.773 89.2132L194.801 85.6754C194.936 85.5201 195.037 85.3405 195.099 85.1472C195.161 84.9539 195.182 84.7507 195.161 84.5496C195.14 84.3484 195.077 84.1533 194.976 83.9756C194.876 83.7979 194.739 83.6412 194.574 83.5146Z" fill="white"/>
<path d="M201.075 89.8193C201.382 89.4591 201.248 88.8973 200.778 88.9471V88.9471C200.569 88.9666 200.367 89.0257 200.182 89.1211C199.998 89.2165 199.835 89.3462 199.704 89.5026L196.136 93.6776C195.905 93.9483 195.946 94.3572 196.226 94.5767V94.5767C196.49 94.7832 196.87 94.7451 197.087 94.4902L201.075 89.8193Z" fill="#E8E8E8"/>
<path d="M198.518 88.0168C198.877 87.5968 198.709 86.9416 198.167 87.0472V87.0472C197.809 87.1171 197.486 87.3036 197.255 87.5752L193.687 91.7502C193.456 92.0208 193.497 92.4298 193.777 92.6492V92.6492C194.041 92.8558 194.421 92.8176 194.639 92.5627L198.518 88.0168Z" fill="#E8E8E8"/>
<path d="M196.04 86.0944C196.399 85.6747 196.232 85.0196 195.69 85.1252V85.1252C195.331 85.1951 195.009 85.3816 194.778 85.6532L191.204 89.8282C190.973 90.0988 191.014 90.5079 191.294 90.7275V90.7275C191.558 90.934 191.938 90.896 192.155 90.6413L196.04 86.0944Z" fill="#E8E8E8"/>
<path d="M193.712 84.0538C194.018 83.6945 193.883 83.1358 193.414 83.1813V83.1813C193.206 83.2003 193.004 83.2592 192.821 83.3547C192.637 83.4502 192.476 83.5801 192.346 83.7368L188.771 87.9286C188.54 88.1993 188.581 88.6078 188.862 88.8271V88.8271C189.126 89.0339 189.506 88.9954 189.724 88.74L193.712 84.0538Z" fill="#E8E8E8"/>
<path d="M191.258 82.1305C191.562 81.7733 191.427 81.2179 190.959 81.2594V81.2594C190.752 81.279 190.55 81.3382 190.367 81.4336C190.183 81.529 190.022 81.6587 189.892 81.8149L186.318 85.99C186.087 86.2606 186.128 86.6696 186.408 86.8891V86.8891C186.672 87.0956 187.052 87.0575 187.269 86.8027L191.258 82.1305Z" fill="#E8E8E8"/>
<path d="M192.787 80.0485C192.532 80.5898 192.45 81.1917 192.554 81.7774C192.657 82.3631 192.94 82.906 193.368 83.3369C195.524 85.6304 198.164 87.4594 201.114 88.7027V88.7027C203.764 89.7926 202.712 84.5177 200.924 82.2793C200.075 81.2163 199.217 80.0934 198.312 79.1486L198.166 79.0042C197.884 78.7081 197.542 78.4695 197.161 78.3027C196.78 78.1359 196.368 78.0443 195.95 78.0334C195.531 78.0225 195.114 78.0925 194.724 78.2393C194.335 78.3861 193.98 78.6065 193.681 78.8876C193.301 79.2103 192.997 79.6058 192.787 80.0485Z" fill="#009CDA"/>
<path d="M200.679 84.57C197.862 82.0567 196.745 80.0876 195.614 78.6191C195.368 78.2998 194.945 78.1563 194.576 78.3187V78.3187C194.034 78.5573 193.993 79.2477 194.352 79.7188C194.606 80.0523 194.849 80.3938 195.079 80.7428C196.907 83.4258 202.199 87.4085 204.242 87.5029C206.157 87.564 207.271 85.8365 207.404 85.6088C207.259 85.7976 205.072 88.475 200.679 84.57Z" fill="white"/>
<path d="M173.943 57.6204C173.826 53.4957 177.824 52.356 179.123 56.2726C179.921 58.6789 180.634 61.1013 181.042 63.1092C181.225 64.0141 181.167 64.9391 180.913 65.8269C180.07 68.7796 177.854 75.8286 175.098 79.0335C174.533 79.6907 173.569 79.6808 172.876 79.1603V79.1603C172.037 78.5295 171.849 77.3525 172.388 76.4509C173.428 74.7097 174.286 72.8727 174.949 70.9666C175.406 69.7551 175.79 68.5202 176.098 67.2681C176.524 65.541 176.297 63.733 175.65 62.0761L174.224 58.4263C174.04 57.9542 173.957 58.127 173.943 57.6204V57.6204Z" fill="#009CDA"/>
<path d="M171.212 83.0425C172.127 82.8041 172.954 82.3265 173.601 81.6632V81.6632C174.784 80.4502 174.111 78.5848 172.864 77.4373L172.696 77.2828C172.332 76.9472 171.925 76.6552 171.463 76.4756C171.177 76.3641 170.884 76.2681 170.586 76.188C170.232 76.1008 169.631 76.4633 169.751 76.7424C169.773 76.7924 169.818 76.827 169.861 76.8606V76.8606C170.429 77.307 170.413 78.173 169.89 78.6715C169.695 78.8572 169.507 79.0497 169.327 79.2487C168.967 79.7056 168.661 80.1993 168.415 80.7207C167.8 82.4426 169.298 83.5702 171.212 83.0425Z" fill="#F4B595"/>
<path d="M143.939 67.6116C143.442 66.8526 143.156 65.9427 143.148 65.0613C143.13 63.1715 145.361 62.5927 147.229 62.879V62.879C147.893 62.9383 148.537 63.1273 149.121 63.4345C149.193 63.4813 149.248 63.5492 149.277 63.6281C149.306 63.7071 149.307 63.7928 149.281 63.8727C149.255 63.9525 149.203 64.0221 149.132 64.0713C149.062 64.1204 148.976 64.1464 148.889 64.1455V64.1455C147.89 64.1455 146.829 64.7771 147.015 65.7582C147.052 65.9496 147.122 66.1324 147.241 66.2896C147.519 66.6617 148.883 67.4727 148.883 67.6838C148.877 69.4946 145.03 69.2947 143.939 67.6116Z" fill="#F4B595"/>
<path d="M153.731 45.8422C153.362 45.0645 152.349 45.1194 151.534 45.3946C149.796 45.9809 146.573 47.1682 144 48.6861C141.991 49.8713 141.042 52.1709 141.489 54.4604C141.948 56.8116 142.794 59.3018 143.635 61.2225C144.036 62.1391 144.714 62.9898 145.703 63.1413V63.1413V63.1413C146.465 63.2582 147.058 62.3077 146.904 61.5517C146.604 60.0801 146.177 57.797 146.004 55.9708C145.868 54.537 145.682 53.7715 147.029 53.2633V53.2633C149.661 52.2708 154.667 48.9792 153.892 46.2752C153.848 46.1209 153.795 45.9758 153.731 45.8422Z" fill="#009CDA"/>
<defs>
<linearGradient id="paint0_linear" x1="147.597" y1="-723.783" x2="147.597" y2="371.265" gradientUnits="userSpaceOnUse">
<stop stop-color="white"/>
<stop offset="0.22" stop-color="white" stop-opacity="0.76"/>
<stop offset="0.6" stop-color="white" stop-opacity="0.36"/>
<stop offset="0.87" stop-color="white" stop-opacity="0.1"/>
<stop offset="1" stop-color="white" stop-opacity="0"/>
</linearGradient>
<linearGradient id="paint1_linear" x1="14056.4" y1="-779.577" x2="14056.4" y2="3986.22" gradientUnits="userSpaceOnUse">
<stop stop-color="white"/>
<stop offset="0.22" stop-color="white" stop-opacity="0.76"/>
<stop offset="0.6" stop-color="white" stop-opacity="0.36"/>
<stop offset="0.87" stop-color="white" stop-opacity="0.1"/>
<stop offset="1" stop-color="white" stop-opacity="0"/>
</linearGradient>
<linearGradient id="paint2_linear" x1="1931.98" y1="3822.38" x2="1931.98" y2="6802.33" gradientUnits="userSpaceOnUse">
<stop stop-color="white"/>
<stop offset="0.22" stop-color="white" stop-opacity="0.76"/>
<stop offset="0.6" stop-color="white" stop-opacity="0.36"/>
<stop offset="0.87" stop-color="white" stop-opacity="0.1"/>
<stop offset="1" stop-color="white" stop-opacity="0"/>
</linearGradient>
<linearGradient id="paint3_linear" x1="14418.7" y1="3199.64" x2="14418.7" y2="6804.36" gradientUnits="userSpaceOnUse">
<stop stop-color="white"/>
<stop offset="0.22" stop-color="white" stop-opacity="0.76"/>
<stop offset="0.6" stop-color="white" stop-opacity="0.36"/>
<stop offset="0.87" stop-color="white" stop-opacity="0.1"/>
<stop offset="1" stop-color="white" stop-opacity="0"/>
</linearGradient>
<linearGradient id="paint4_linear" x1="2575.08" y1="-525.685" x2="2575.08" y2="2870.23" gradientUnits="userSpaceOnUse">
<stop stop-color="white"/>
<stop offset="0.22" stop-color="white" stop-opacity="0.76"/>
<stop offset="0.6" stop-color="white" stop-opacity="0.36"/>
<stop offset="0.87" stop-color="white" stop-opacity="0.1"/>
<stop offset="1" stop-color="white" stop-opacity="0"/>
</linearGradient>
</defs>
</svg>
