<svg width="100" height="100" viewBox="0 0 100 100" fill="none" xmlns="http://www.w3.org/2000/svg">
<circle cx="50" cy="50" r="50" fill="#D0EEF8"/>
<path d="M59.3078 26.1875H37.4528C35.5459 26.1875 34 27.7334 34 29.6403V70.4656C34 72.3726 35.5459 73.9184 37.4528 73.9184H59.3078C61.2147 73.9184 62.7606 72.3726 62.7606 70.4656V29.6403C62.7606 27.7334 61.2147 26.1875 59.3078 26.1875Z" fill="#373E49"/>
<path d="M54.0981 27.9106C54.0981 28.366 53.9173 28.8027 53.5954 29.1247C53.2735 29.4468 52.8369 29.6279 52.3816 29.6281H44.3791C43.9237 29.6279 43.4871 29.4468 43.1652 29.1247C42.8433 28.8027 42.6625 28.366 42.6625 27.9106H37.0066C36.582 27.9111 36.1749 28.0801 35.8749 28.3805C35.5748 28.681 35.4062 29.0882 35.4063 29.5128V70.8519C35.4063 71.2768 35.5751 71.6843 35.8755 71.9848C36.176 72.2852 36.5835 72.454 37.0084 72.454H59.7541C60.179 72.454 60.5865 72.2852 60.887 71.9848C61.1875 71.6843 61.3562 71.2768 61.3562 70.8519V29.5128C61.3562 29.0879 61.1875 28.6804 60.887 28.3799C60.5865 28.0794 60.179 27.9106 59.7541 27.9106H54.0981Z" fill="white"/>
<path d="M61.3562 65.3234L47.6575 48.0734L47.5938 48.0312L47.6959 72.3903L48.6784 72.4541H59.7541C60.179 72.4541 60.5865 72.2853 60.887 71.9848C61.1874 71.6843 61.3562 71.2768 61.3562 70.8519V65.3206V65.3234Z" fill="#FFB600"/>
<path d="M47.5938 65.8147L55.3609 57.7672H81.9081V33.8497H47.5938V65.8147Z" fill="url(#paint0_linear)"/>
<path d="M72.0277 40.6512C71.5862 39.3706 70.6862 38.4284 69.5565 38.0665C67.4115 37.3784 65.6481 38.2625 64.974 38.6862C64.2999 38.2625 62.5365 37.3784 60.3915 38.0665C59.2618 38.4293 58.3609 39.3715 57.9193 40.6531C57.3399 42.3406 57.6315 44.2812 58.7003 45.8515C59.4042 46.875 59.8653 48.0457 60.0484 49.2743C60.0584 49.3431 60.0678 49.4134 60.0765 49.4853C60.2387 50.7406 60.4768 51.7484 60.7853 52.4796C61.1546 53.3562 61.629 53.8306 62.2018 53.8859C62.8065 53.9459 63.309 53.4434 63.6943 52.3906C63.9643 51.6546 64.1771 50.6684 64.2934 49.6137C64.3581 49.024 64.5109 48.5468 64.7331 48.2328C64.7604 48.1945 64.7964 48.1632 64.8383 48.1417C64.8801 48.1201 64.9265 48.1089 64.9735 48.1089C65.0206 48.1089 65.067 48.1201 65.1088 48.1417C65.1506 48.1632 65.1867 48.1945 65.214 48.2328C65.4371 48.5459 65.589 49.024 65.6537 49.6137C65.7699 50.6684 65.9827 51.6546 66.2527 52.3906C66.6174 53.3862 67.0871 53.8906 67.6487 53.8906C67.6806 53.8906 67.7118 53.889 67.7424 53.8859C68.3134 53.8287 68.7896 53.3553 69.159 52.4796C69.4674 51.7475 69.7056 50.7406 69.8677 49.4853C69.8765 49.4159 69.8856 49.3481 69.8949 49.2818C70.0783 48.0496 70.5403 46.8755 71.2459 45.8487C72.3165 44.2812 72.6071 42.335 72.0277 40.6512Z" fill="white"/>
<defs>
<linearGradient id="paint0_linear" x1="47.5938" y1="49.8322" x2="81.9081" y2="49.8322" gradientUnits="userSpaceOnUse">
<stop stop-color="#0092FF"/>
<stop offset="0.32" stop-color="#00A2FF"/>
<stop offset="0.96" stop-color="#00CCFF"/>
<stop offset="1" stop-color="#00CFFF"/>
</linearGradient>
</defs>
</svg>
