<svg width="108" height="100" viewBox="0 0 108 100" fill="none" xmlns="http://www.w3.org/2000/svg">
<ellipse cx="54" cy="50" rx="54" ry="50" fill="#D0EEF8"/>
<path fill-rule="evenodd" clip-rule="evenodd" d="M54.3376 26.2349C73.6488 26.2349 66.1225 53.7404 54.3376 53.7404C43.2069 53.7404 35.0263 26.2349 54.3376 26.2349Z" fill="#FFE8BE"/>
<path fill-rule="evenodd" clip-rule="evenodd" d="M67.3666 35.2469L40.8938 35.3834C40.8938 35.3834 41.8448 47.978 38.5172 51.926H70.9138C70.0789 50.8731 67.8711 50.5338 67.3666 35.2469Z" fill="#60350A"/>
<path fill-rule="evenodd" clip-rule="evenodd" d="M42.5464 55.2231L49.0854 52.7374L59.5663 52.5034L66.2996 55.5428L61.4384 64.2899L54.5301 67.4783L47.384 64.0855L42.5464 55.2231Z" fill="#D5E1ED"/>
<path fill-rule="evenodd" clip-rule="evenodd" d="M48.5435 49.8265L60.2776 49.8921V56.8718L48.5435 56.8055V49.8265Z" fill="#F9DCA4"/>
<path opacity="0.11" fill-rule="evenodd" clip-rule="evenodd" d="M60.2795 49.9029V52.695C60.2923 53.0141 60.2801 53.3335 60.2432 53.6512C60.1885 54.0034 60.0934 54.3501 59.9592 54.6862C55.9937 57.9345 49.6334 55.2945 48.6252 49.7469L60.2795 49.9029Z" fill="black"/>
<path fill-rule="evenodd" clip-rule="evenodd" d="M74 60.762C71.3728 63.0303 68.2462 64.826 64.8028 66.0444C61.3593 67.2627 57.668 67.8793 53.9442 67.858C50.2205 67.8367 46.539 67.1781 43.1147 65.9205C39.6904 64.6629 36.5919 62.8316 34 60.5335L35.108 58.1172L43.3684 54.9022C46.3285 59.5663 49.5481 63.8904 54.5454 66.9564C59.0689 63.7201 62.7332 59.6882 65.2913 55.1323L72.6815 58.1375L74 60.762Z" fill="#434955"/>
<path fill-rule="evenodd" clip-rule="evenodd" d="M43.4311 38.5194C40.7469 39.5256 43.03 44.2989 44.7196 44.2779C44.0185 42.4107 43.5858 40.4769 43.4311 38.5194Z" fill="#F9DCA4"/>
<path fill-rule="evenodd" clip-rule="evenodd" d="M65.5698 38.5187C68.2558 39.5264 65.9718 44.2989 64.2821 44.2779C64.9831 42.4105 65.4155 40.4764 65.5698 38.5187Z" fill="#F9DCA4"/>
<path fill-rule="evenodd" clip-rule="evenodd" d="M54.324 26.4169C62.2387 26.4169 65.5554 31.2526 65.7586 36.8425C66.0372 44.4939 60.6089 53.557 54.3249 53.557C48.3721 53.557 42.795 44.1835 43.1334 36.4541C43.3694 31.0311 46.5944 26.4169 54.324 26.4169Z" fill="#FFE8BE"/>
<path fill-rule="evenodd" clip-rule="evenodd" d="M56.3976 39.1435C57.8155 38.3991 59.5003 38.1238 61.1372 38.3691H61.1417C65.8187 38.8604 65.8913 40.1099 65.4366 40.3977C65.1323 40.6138 64.8888 40.8863 64.7243 41.1948C64.6227 42.0091 64.2953 42.7907 63.7697 43.4738C63.4196 43.9451 62.9595 44.3488 62.4183 44.6592C61.8772 44.9696 61.267 45.18 60.6263 45.277C60.4738 45.2981 60.3178 45.3145 60.1581 45.3223C59.5337 45.3607 58.9076 45.2709 58.3316 45.0601C57.7557 44.8493 57.2464 44.5237 56.8459 44.1102C56.2667 43.5258 55.8126 42.8577 55.5047 42.137V42.1393C55.5047 42.1393 54.7815 40.8633 53.6245 42.0504C53.3137 42.8029 52.8463 43.5006 52.2452 44.1094C51.8446 44.5231 51.3351 44.8489 50.759 45.0598C50.1829 45.2706 49.5567 45.3606 48.9321 45.3223C48.7752 45.3138 48.619 45.2987 48.4638 45.277C47.8232 45.1799 47.2129 44.9695 46.6718 44.6591C46.1307 44.3487 45.6706 43.9451 45.3205 43.4738C44.795 42.7909 44.4676 42.0096 44.3658 41.1956C44.2092 40.8861 43.9698 40.6127 43.6671 40.3977C43.2134 40.1091 43.2814 38.8589 47.9584 38.3675H47.9602C49.6039 38.1235 51.2948 38.4036 52.7152 39.1552L52.7143 39.1545L52.717 39.156L52.9121 39.2582C53.4561 39.4972 54.0624 39.6122 54.6729 39.592C55.2834 39.5717 55.8776 39.4171 56.3985 39.1428L56.3976 39.1435ZM52.158 39.6412C51.3147 39.2225 50.3658 38.9859 49.3927 38.9515C48.4197 38.9171 47.4514 39.0861 46.5709 39.4438C45.1998 39.9789 44.7814 40.3564 45.3132 41.9108C45.4573 42.3348 45.6751 42.7376 45.9593 43.1057C46.2801 43.5542 46.7218 43.9298 47.2471 44.2007C47.7725 44.4715 48.366 44.6296 48.9775 44.6616C49.4855 44.6917 49.9945 44.6174 50.4626 44.4449C50.9306 44.2724 51.3441 44.0066 51.6689 43.6696C52.2069 43.1226 52.625 42.4963 52.9031 41.8211C53.5192 40.4328 53.6853 40.3681 52.159 39.6412H52.158ZM62.0918 39.2902C61.2213 39.0091 60.2875 38.9027 59.3619 38.9791C58.4362 39.0554 57.543 39.3126 56.7506 39.7308C55.355 40.4414 55.609 40.5599 56.2261 41.9069C56.5006 42.5502 56.9048 43.1469 57.4203 43.6696C57.7452 44.0067 58.1589 44.2726 58.6271 44.4451C59.0953 44.6176 59.6045 44.6918 60.1127 44.6616C60.2434 44.6549 60.3736 44.6424 60.5029 44.6242C61.0393 44.5412 61.5499 44.3633 62.0023 44.102C62.4546 43.8406 62.8389 43.5013 63.1308 43.1057C63.3991 42.7587 63.6081 42.3805 63.7515 41.9825C64.3885 40.2277 63.8205 39.8369 62.0927 39.291L62.0918 39.2902Z" fill="#464449"/>
<path fill-rule="evenodd" clip-rule="evenodd" d="M42.324 39.631C42.324 39.1334 43.2169 38.94 43.7741 41.9265C44.224 40.7066 44.515 39.4476 44.6416 38.1725C45.6961 38.348 46.7088 40.3938 46.3903 42.1877C49.2632 41.5817 56.6471 37.7521 59.0481 32.5755C65.1933 35.6181 65.1598 42.0084 65.1598 42.0084C65.1598 42.0084 65.4846 40.5264 65.6661 39.266C65.726 38.8464 65.932 38.6943 66.3902 39.0999C69.7133 33.1846 64.4746 24.1425 54.4901 24.0021C40.7805 23.8103 39.0364 36.5705 42.3249 39.6318L42.324 39.631Z" fill="#8A5C42"/>
<path fill-rule="evenodd" clip-rule="evenodd" d="M48.5627 52.752C49.9964 54.5883 52.04 56.0114 54.4275 56.8358L50.609 61.6279L45.2396 53.9999L48.5627 52.752Z" fill="white"/>
<path fill-rule="evenodd" clip-rule="evenodd" d="M60.2841 52.752C58.8503 54.5883 56.8068 56.0113 54.4193 56.8358L58.2387 61.6279L63.6407 54.0873L60.2841 52.752Z" fill="white"/>
<path d="M54.4229 61.3083C54.8434 61.3083 55.1843 61.0154 55.1843 60.6539C55.1843 60.2925 54.8434 59.9995 54.4229 59.9995C54.0024 59.9995 53.6615 60.2925 53.6615 60.6539C53.6615 61.0154 54.0024 61.3083 54.4229 61.3083Z" fill="#434955"/>
<path d="M54.4229 64.2168C54.8434 64.2168 55.1843 63.9239 55.1843 63.5625C55.1843 63.2011 54.8434 62.9082 54.4229 62.9082C54.0024 62.9082 53.6615 63.2011 53.6615 63.5625C53.6615 63.9239 54.0024 64.2168 54.4229 64.2168Z" fill="#434955"/>
<path fill-rule="evenodd" clip-rule="evenodd" d="M64.1996 38.9517C65.8185 39.507 65.7595 40.1847 65.4401 40.3875C65.1358 40.6037 64.8923 40.8761 64.7278 41.1846C64.6569 41.7481 64.4784 42.2978 64.1996 42.8115V38.9517ZM44.7178 42.445C44.5406 42.0393 44.4235 41.6161 44.3693 41.1854C44.2128 40.8758 43.9734 40.6025 43.6706 40.3875C43.3648 40.1933 43.2958 39.5608 44.7178 39.0195V42.445Z" fill="#464449"/>
</svg>
