<svg width="293" height="290" viewBox="0 0 293 290" fill="none" xmlns="http://www.w3.org/2000/svg">
<rect width="290" height="290" rx="30" fill="white"/>
<path d="M169.94 143.462H58.5999V214.526H169.94V143.462Z" fill="#D3BD7D"/>
<path d="M105.246 155.357H65.6906V173.123H105.246V155.357Z" fill="#EAD5A0"/>
<path d="M105.246 182.429H65.6906V200.195H105.246V182.429Z" fill="#EAD5A0"/>
<path d="M169.94 142.227H53.3845V149.429H169.94V142.227Z" fill="#B29756"/>
<path d="M188.457 125.6C188.464 125.495 188.464 125.389 188.457 125.284H180.752C180.752 124.63 180.752 123.818 188.897 86.1371C189.51 83.3077 189.5 80.3862 188.87 77.5605C188.239 74.7348 187 72.0674 185.234 69.73C183.468 67.3926 181.213 65.4369 178.614 63.9887C176.015 62.5404 173.131 61.6318 170.145 61.3211L162.146 60.492L162.972 53.1036L170.971 53.9327C175.027 54.3533 178.947 55.5864 182.479 57.5526C186.01 59.5188 189.075 62.1746 191.476 65.3492C193.877 68.5238 195.561 72.1468 196.419 75.9854C197.278 79.8239 197.293 83.793 196.462 87.6373C189.495 119.847 188.545 124.918 188.457 125.6Z" fill="#7EB5CC"/>
<path d="M178.378 203.923L205.393 206.286L186.975 216.923L178.378 203.923Z" fill="#B6D7E7"/>
<path d="M186.975 203.331V216.923L158.12 233.471L186.975 203.331Z" fill="#00789F"/>
<path d="M179.899 160.396L129.538 153.057C126.338 152.591 123.351 154.709 122.866 157.789L122.782 158.324C122.298 161.404 124.499 164.279 127.699 164.745L178.06 172.084C181.26 172.551 184.247 170.432 184.731 167.352L184.815 166.817C185.3 163.737 183.099 160.862 179.899 160.396Z" fill="#B6D7E7"/>
<path d="M107.156 171.814H87.097V221.847H107.156V171.814Z" fill="#B6D7E7"/>
<path d="M107.156 221.847L87.097 226.579V206.089L96.5141 196.241V171.814H107.156V221.847Z" fill="#7EB5CC"/>
<path d="M121.337 167.855C120.956 173.049 110.408 177.285 96.9302 177.285C83.4522 177.285 72.5233 173.061 72.5233 167.855C72.5233 162.649 75.6408 152.903 96.9302 158.419C109.945 161.792 122.304 154.46 121.337 167.855Z" fill="#135868"/>
<path d="M96.9302 172.948C110.41 172.948 121.337 168.726 121.337 163.518C121.337 158.31 110.41 154.088 96.9302 154.088C83.4507 154.088 72.5233 158.31 72.5233 163.518C72.5233 168.726 83.4507 172.948 96.9302 172.948Z" fill="#00789F"/>
<path d="M83.8272 151.33L77.8617 160.388C77.8617 160.388 75.2305 163.146 80.9616 166.693C86.6927 170.241 99.7898 172.209 101.425 177.33C103.06 182.451 97.7447 204.515 97.7447 204.515L114.528 187.967C114.528 187.967 119.849 173.783 115.752 170.241C113.35 168.16 110.098 165.261 107.824 163.225C107.598 163.022 107.439 162.76 107.369 162.47C107.299 162.181 107.32 161.878 107.429 161.6C107.539 161.322 107.732 161.082 107.984 160.91C108.235 160.739 108.535 160.643 108.843 160.636C114.493 160.495 124.929 160.636 128.439 163.146C131.082 165.052 130.092 174.2 130.092 174.2L141.964 166.304L137.768 155.808C137.182 154.342 136.188 153.059 134.895 152.1C133.602 151.142 132.06 150.543 130.438 150.371L105.943 147.788L86.7044 146.609L83.8272 151.33Z" fill="#562911"/>
<path d="M122.415 105.161C121.296 109.881 120.353 110.649 119.849 111.929C118.917 114.292 113.086 126.66 111.645 128.138C110.203 129.616 108.041 149.119 108.041 149.119H79.5319C79.5319 149.119 83.7042 147.562 83.8272 146.011C84.9992 143.09 84.6828 140.935 85.3626 138.031C87.9058 126.999 89.9275 103.999 92.0723 101.529C92.393 101.153 92.7374 100.797 93.1036 100.463C93.463 100.127 93.8426 99.8129 94.2405 99.5208C95.3067 98.7225 96.4921 98.0836 97.7565 97.6257C97.8854 97.5731 98.0143 97.528 98.1432 97.4904C98.6861 97.3051 99.2424 97.158 99.8075 97.0505C100.156 96.9767 100.508 96.9221 100.862 96.8869C101.625 96.7871 102.396 96.755 103.165 96.791L105.451 96.8925L116.227 97.3663C117.199 97.4059 118.149 97.6505 119.012 98.0829C119.874 98.5154 120.627 99.1251 121.218 99.8687C121.808 100.612 122.222 101.472 122.429 102.387C122.635 103.301 122.631 104.248 122.415 105.161Z" fill="#00789F"/>
<path d="M114.856 97.3043C114.856 97.3043 112.881 106.131 111.188 111.004C109.494 115.877 107.179 122.972 106.031 127.112C104.882 131.251 101.079 149.108 101.079 149.108H106.476L110.947 122.763L117.393 108.184L118.255 99.1203L114.856 97.3043Z" fill="#2D4C87"/>
<path d="M105.556 96.7798C105.52 96.8124 105.491 96.8505 105.468 96.8925C104.654 97.9134 102.972 100.248 102.292 101.207C93.0039 114.275 92.33 128.928 91.369 139.249C91.2342 140.783 91.4979 143.118 91.7499 145.701C91.8644 146.839 91.825 147.986 91.6327 149.113C91.1037 152.261 89.4273 155.126 86.904 157.192C84.3807 159.259 81.1752 160.394 77.8617 160.393H73.1737C75.6379 155.945 77.816 151.354 79.6959 146.649C80.8679 143.727 83.2119 108.782 92.0488 101.529C92.4355 101.213 92.7168 100.795 93.0801 100.463C93.441 100.129 93.8205 99.8146 94.217 99.5208C95.2832 98.7225 96.4686 98.0836 97.733 97.6258C97.8619 97.5731 97.9908 97.528 98.1197 97.4904C98.6626 97.3051 99.2189 97.158 99.784 97.0505C100.132 96.9767 100.484 96.9221 100.839 96.8869C101.602 96.7871 102.373 96.755 103.142 96.791L105.556 96.7798Z" fill="#B6D7E7"/>
<path d="M102.55 99.1373L102.304 101.202C93.0157 114.275 92.3418 128.928 91.3867 139.255L86.2943 115.476L95.0843 107.755L95.7699 102.894L102.55 99.1373Z" fill="#7EB5CC"/>
<path d="M122.409 105.155C121.302 109.881 112.196 126.192 111.662 128.144C107.156 144.629 114.932 158.814 114.932 158.814L108.041 153.332C106.422 152.044 105.18 150.374 104.436 148.484C103.692 146.594 103.472 144.55 103.798 142.554C103.98 141.465 104.167 140.36 104.384 139.255C105.474 133.005 106.839 126.536 108.838 121.207C112.389 111.743 114.27 107.056 114.797 98.8665C114.797 98.4943 114.844 98.1108 114.862 97.7385C114.862 97.5975 114.862 97.4622 114.862 97.3325L116.274 97.3945C117.238 97.4412 118.179 97.6898 119.033 98.123C119.886 98.5562 120.631 99.1636 121.215 99.9027C121.8 100.642 122.209 101.495 122.416 102.402C122.622 103.309 122.62 104.249 122.409 105.155Z" fill="#B6D7E7"/>
<path d="M114.346 103.046L119.456 98.3251C119.456 98.3251 132.53 113.75 143.171 114.281C153.813 114.811 165.891 102.403 165.891 102.403L173.052 109.735C173.052 109.735 153.198 123.35 141.525 122.335C134.956 121.771 118.22 112.262 118.22 112.262L114.346 103.046Z" fill="#B6D7E7"/>
<path d="M115.975 108.494L117.241 113.813L104.079 140.885C105.169 134.635 107.554 127.557 109.553 122.216C113.104 112.758 114.979 108.071 115.512 99.8817L118.231 105.234L115.975 108.494Z" fill="#7EB5CC"/>
<path d="M96.9009 72.8605C96.9009 72.8605 93.8244 68.4274 90.49 70.9654C87.1557 73.5034 90.9764 82.3131 97.1118 80.7339L96.9009 72.8605Z" fill="#F0C0B2"/>
<path d="M96.9829 75.844L97.0884 79.8992C91.8496 80.4294 89.4235 73.2835 91.873 72.4939C93.8596 71.8509 96.0629 74.451 96.9829 75.844Z" fill="#CF9166"/>
<path d="M90.9354 73.87V73.7798C90.9354 73.7234 90.9882 73.6444 91.035 73.5486C91.1437 73.2872 91.3214 73.0578 91.5507 72.883C91.619 72.8355 91.694 72.7975 91.7734 72.7702L91.8965 72.7308H91.9551H92.0371H92.1895H92.4883C92.5409 72.7252 92.594 72.7252 92.6465 72.7308C93.101 72.8146 93.5334 72.9853 93.9182 73.2327C94.1291 73.3568 94.3225 73.5034 94.5042 73.6444C94.6858 73.7854 94.8851 73.9434 95.0902 74.0956C95.4476 74.4058 95.7641 74.7104 96.0453 74.9755L96.9654 75.8779C96.9654 75.8779 96.9185 75.7594 96.8247 75.5508C96.6914 75.2687 96.5387 74.9955 96.3676 74.733C96.2622 74.575 96.145 74.3946 96.0043 74.2197C95.8637 74.0449 95.7113 73.8588 95.5414 73.6557C95.1797 73.2685 94.7681 72.9274 94.3166 72.6405C94.0747 72.4945 93.8174 72.3735 93.549 72.2796C93.2809 72.1809 92.9978 72.1257 92.711 72.116C92.6408 72.1103 92.5702 72.1103 92.5 72.116C92.4297 72.116 92.3594 72.116 92.2949 72.116L92.0898 72.1555C92.0254 72.1676 91.9625 72.1865 91.9023 72.2119H91.8203H91.7734H91.7265C91.6676 72.2356 91.6107 72.2639 91.5566 72.2965C91.4558 72.3631 91.3634 72.4407 91.2812 72.5277C91.1457 72.6718 91.0455 72.8433 90.9882 73.0297C90.9425 73.1629 90.9149 73.3013 90.9061 73.4414C90.9061 73.5542 90.9061 73.6444 90.9061 73.7065L90.9354 73.87Z" fill="#CF9166"/>
<path d="M128.392 74.7499C128.392 74.7499 132.014 70.7173 134.991 73.6219C137.968 76.5265 133.022 84.8286 127.162 82.5331L128.392 74.7499Z" fill="#F0C0B2"/>
<path d="M127.924 77.6996L127.297 81.704C132.424 82.8602 135.753 76.064 133.42 74.9811C131.539 74.1069 129.014 76.425 127.924 77.6996Z" fill="#CF9166"/>
<path d="M134.194 76.4588C134.194 76.4588 134.194 76.4588 134.194 76.3685C134.194 76.2783 134.159 76.2275 134.129 76.126C134.056 75.8531 133.908 75.604 133.702 75.4041C133.641 75.3477 133.572 75.3002 133.497 75.2631C133.459 75.2439 133.419 75.2269 133.379 75.2123H133.344H133.262C133.215 75.195 133.166 75.1837 133.116 75.1785H132.975H132.823C132.77 75.1729 132.717 75.1729 132.664 75.1785C132.201 75.2012 131.747 75.3184 131.334 75.5225C131.11 75.622 130.893 75.735 130.684 75.8609C130.473 75.9794 130.268 76.1091 130.098 76.2388C129.705 76.5039 129.348 76.7633 129.037 76.9946L128.006 77.7842C128.006 77.7842 128.064 77.6657 128.187 77.474C128.355 77.2104 128.541 76.9579 128.744 76.7182C128.873 76.5716 129.014 76.408 129.172 76.2501C129.33 76.0922 129.512 75.9286 129.699 75.7651C130.108 75.4238 130.561 75.1356 131.047 74.9078C131.307 74.7916 131.577 74.7009 131.856 74.6371C132.136 74.577 132.425 74.5562 132.711 74.575L132.916 74.6032C132.986 74.6123 133.055 74.6274 133.122 74.6483C133.189 74.6647 133.256 74.6854 133.321 74.7104L133.497 74.7837L133.573 74.8232H133.62H133.661L133.825 74.9303C133.914 75.0083 133.995 75.0953 134.065 75.1898C134.184 75.3584 134.26 75.5516 134.288 75.7538C134.306 75.8923 134.306 76.0326 134.288 76.1711C134.283 76.2584 134.271 76.3451 134.252 76.4306L134.194 76.4588Z" fill="#CF9166"/>
<path d="M109.424 85.7141L117.493 88.393C117.358 88.816 112.975 102.104 113.473 100.677C113.473 100.677 112.008 102.933 108.41 101.771C104.812 100.609 104.829 97.8231 104.829 97.8231L109.424 85.7141Z" fill="#F0C0B2"/>
<path d="M107.765 89.7635L116.286 92.2395C116.286 92.2395 114.288 97.9472 114.323 97.9585C114.358 97.9698 113.08 99.9212 109.476 98.7875C105.873 97.6539 106.007 95.3528 106.007 95.3528L107.765 89.7635Z" fill="#F48470"/>
<path d="M107.888 88.9796L116.415 89.4872C116.415 89.4872 116.415 91.1341 116.415 92.5385C116.415 92.7415 113.942 92.9502 113.672 92.9727C111.589 93.1117 109.499 92.8372 107.531 92.1662C107.701 90.728 107.888 88.9796 107.888 88.9796Z" fill="#CF9166"/>
<path d="M92.8106 69.2171C92.1485 79.448 100.833 88.2972 112.213 88.9571C123.593 89.6169 133.35 81.8958 134.012 71.6592C134.674 61.4226 125.99 52.6016 114.61 51.9248C103.23 51.248 93.4728 58.9861 92.8106 69.2171Z" fill="#562911"/>
<path d="M95.014 69.0986C95.6 63.4078 98.4831 58.1795 104.478 56.3183C107.567 55.4544 110.802 55.1785 114 55.5062C117.141 55.7431 120.476 56.1435 123.376 57.4125C128.545 59.6685 130.994 64.4851 131.2 69.7246C131.2 70.2379 131.2 70.7511 131.2 71.2643C131.2 72.4431 131.2 73.6049 131.065 74.7781C130.817 77.4352 130.163 80.0426 129.125 82.5161C127.89 85.5631 125.788 88.2136 123.06 90.164C121.457 91.241 119.673 92.0424 117.786 92.5328C114.825 93.4128 111.672 93.5025 108.662 92.7922C106.535 92.3038 104.509 91.4704 102.673 90.3275C99.7097 88.3919 97.4544 85.6077 96.227 82.3695C95.2066 79.6564 94.6774 76.7949 94.6624 73.9095C94.6204 72.336 94.7224 70.762 94.9671 69.2057C94.9852 69.1711 95.0009 69.1353 95.014 69.0986Z" fill="#F0C0B2"/>
<path d="M108.345 75.0601C108.286 75.5837 108.07 76.0793 107.723 76.4865C107.376 76.8938 106.913 77.1949 106.391 77.3533C105.869 77.5117 105.311 77.5205 104.784 77.3785C104.257 77.2365 103.784 76.95 103.423 76.5538C103.063 76.1577 102.83 75.6691 102.753 75.1476C102.676 74.6262 102.758 74.0944 102.99 73.6173C103.222 73.1402 103.593 72.7383 104.058 72.4606C104.523 72.183 105.062 72.0417 105.609 72.054C105.994 72.0776 106.37 72.1742 106.716 72.3383C107.063 72.5023 107.372 72.7305 107.626 73.0098C107.88 73.2892 108.075 73.6141 108.198 73.9659C108.322 74.3177 108.372 74.6896 108.345 75.0601Z" fill="#CF9166"/>
<path d="M108.363 74.372C108.304 74.8956 108.087 75.3913 107.74 75.7985C107.393 76.2057 106.931 76.5069 106.409 76.6653C105.887 76.8237 105.328 76.8324 104.801 76.6904C104.274 76.5485 103.802 76.2619 103.441 75.8658C103.08 75.4696 102.847 74.981 102.77 74.4596C102.693 73.9381 102.776 73.4064 103.008 72.9292C103.239 72.4521 103.61 72.0502 104.075 71.7726C104.54 71.495 105.079 71.3537 105.626 71.3659C106.011 71.3896 106.388 71.4862 106.734 71.6502C107.08 71.8142 107.389 72.0425 107.644 72.3218C107.898 72.6011 108.092 72.926 108.216 73.2778C108.339 73.6297 108.389 74.0015 108.363 74.372Z" fill="black"/>
<path d="M107.42 73.5542C107.418 73.7691 107.351 73.9788 107.225 74.1565C107.1 74.3343 106.923 74.4722 106.715 74.5526C106.508 74.633 106.281 74.6523 106.063 74.608C105.844 74.5637 105.644 74.4579 105.489 74.3039C105.333 74.15 105.228 73.9549 105.188 73.7436C105.148 73.5322 105.174 73.3141 105.263 73.117C105.351 72.9199 105.499 72.7527 105.687 72.6367C105.875 72.5208 106.095 72.4612 106.318 72.4657C106.614 72.4701 106.896 72.5872 107.102 72.7911C107.309 72.9951 107.423 73.2695 107.42 73.5542Z" fill="white"/>
<path d="M125.07 75.6015C125.011 76.1251 124.794 76.6208 124.447 77.028C124.1 77.4352 123.637 77.7364 123.116 77.8948C122.594 78.0532 122.035 78.0619 121.508 77.9199C120.981 77.778 120.508 77.4914 120.148 77.0953C119.787 76.6991 119.554 76.2105 119.477 75.6891C119.4 75.1676 119.483 74.6359 119.714 74.1587C119.946 73.6816 120.317 73.2797 120.782 73.0021C121.247 72.7245 121.786 72.5832 122.333 72.5954C122.718 72.619 123.095 72.7157 123.441 72.8797C123.787 73.0437 124.096 73.272 124.351 73.5513C124.605 73.8306 124.799 74.1555 124.923 74.5073C125.046 74.8592 125.096 75.231 125.07 75.6015Z" fill="#CF9166"/>
<path d="M125.088 74.936C125.028 75.4596 124.812 75.9552 124.465 76.3625C124.118 76.7697 123.655 77.0709 123.133 77.2293C122.611 77.3876 122.053 77.3964 121.526 77.2544C120.999 77.1124 120.526 76.8259 120.165 76.4298C119.805 76.0336 119.572 75.545 119.495 75.0235C119.418 74.5021 119.5 73.9703 119.732 73.4932C119.964 73.0161 120.335 72.6142 120.8 72.3366C121.265 72.059 121.804 71.9176 122.351 71.9299C122.736 71.9535 123.112 72.0501 123.459 72.2142C123.805 72.3782 124.114 72.6064 124.368 72.8858C124.622 73.1651 124.817 73.49 124.94 73.8418C125.064 74.1937 125.114 74.5655 125.088 74.936Z" fill="black"/>
<path d="M124.138 74.0957C124.137 74.3108 124.069 74.5207 123.943 74.6985C123.818 74.8764 123.64 75.0143 123.433 75.0945C123.225 75.1747 122.998 75.1936 122.779 75.1488C122.56 75.1041 122.361 74.9977 122.205 74.8432C122.049 74.6887 121.945 74.4931 121.906 74.2814C121.866 74.0697 121.893 73.8514 121.983 73.6544C122.073 73.4574 122.221 73.2907 122.41 73.1754C122.599 73.0601 122.819 73.0015 123.042 73.0071C123.189 73.0086 123.333 73.038 123.468 73.0936C123.603 73.1493 123.724 73.2301 123.826 73.3313C123.928 73.4325 124.008 73.5522 124.062 73.6834C124.115 73.8146 124.141 73.9547 124.138 74.0957Z" fill="white"/>
<path d="M114.188 75.4041C114.188 75.4041 113.508 78.9347 115.272 78.7881C118.688 78.461 118.167 85.4151 113.274 82.471C111.422 81.343 112.518 75.3646 112.518 75.3646L114.188 75.4041Z" fill="#F48470"/>
<path d="M132.02 74.2028C129.652 76.2483 127.373 78.3858 125.181 80.6155C121.747 81.0836 108.539 82.4824 101.056 77.4515C100.788 77.2861 100.465 77.2255 100.153 77.2823C100.013 77.2962 99.8794 77.3439 99.7637 77.4207C99.648 77.4976 99.5542 77.6013 99.4911 77.7222C99.409 77.9422 97.6745 82.567 100.347 86.4755C99.7614 86.8589 99.31 87.4034 99.0516 88.0378C99.0186 88.1496 99.0091 88.2666 99.0234 88.382C99.0378 88.4974 99.0757 88.609 99.1351 88.7102C99.1945 88.8114 99.2742 88.9003 99.3694 88.9717C99.4647 89.0431 99.5738 89.0957 99.6903 89.1263C99.9255 89.1829 100.174 89.1508 100.386 89.0365C100.597 88.9222 100.755 88.7343 100.827 88.5115C100.769 88.6469 100.827 88.4777 100.862 88.4551C100.892 88.4023 100.925 88.3515 100.962 88.3028C100.98 88.2721 101.001 88.2436 101.026 88.2182C101.073 88.1675 101.126 88.1224 101.179 88.0716L101.22 88.0321L101.378 87.908L101.53 87.8291C101.612 87.908 101.689 87.987 101.776 88.066C104.331 90.322 108.439 91.5571 113.983 91.7038C114.627 91.7038 115.231 91.7038 115.811 91.6699C118.177 91.5783 120.466 90.8387 122.409 89.538L123.511 90.666C123.685 90.8274 123.917 90.9168 124.158 90.9149C124.4 90.9129 124.631 90.8198 124.801 90.6555C124.972 90.4913 125.069 90.2691 125.071 90.0369C125.073 89.8046 124.98 89.5809 124.812 89.4139L123.804 88.3874C125.716 86.3957 126.905 83.8603 127.191 81.1626C129.164 79.1886 131.209 77.2823 133.327 75.4436C134.194 74.6935 132.905 73.4414 132.02 74.2028Z" fill="#7EB5CC"/>
<path d="M100.599 68.7659C100.732 68.57 100.876 68.3817 101.032 68.2019C101.179 68.044 101.354 67.8296 101.56 67.6379C101.765 67.4461 102.005 67.2205 102.263 67.0006C102.531 66.7777 102.813 66.5706 103.107 66.3802C103.406 66.1835 103.722 66.01 104.05 65.8613C104.371 65.7044 104.706 65.5778 105.052 65.4834C105.381 65.3957 105.716 65.3316 106.054 65.2916C106.374 65.2718 106.695 65.2718 107.015 65.2916C107.312 65.3363 107.606 65.4004 107.894 65.4834C108.155 65.5864 108.409 65.7031 108.656 65.8331C108.878 65.9637 109.088 66.1128 109.283 66.2786C109.463 66.414 109.627 66.5692 109.769 66.7411C109.904 66.899 110.021 67.0513 110.109 67.1698C110.211 67.3008 110.303 67.4384 110.385 67.5815C110.241 67.5779 110.098 67.5647 109.957 67.542C109.822 67.542 109.664 67.5082 109.482 67.4687C109.289 67.4292 109.093 67.401 108.896 67.3841C108.674 67.3841 108.445 67.2995 108.187 67.2826C107.929 67.2656 107.672 67.2487 107.402 67.2092C107.132 67.1698 106.816 67.2092 106.552 67.2092L105.667 67.2487L105.216 67.3051C105.067 67.3179 104.918 67.3387 104.771 67.3672L104.325 67.4518C104.179 67.4518 104.027 67.5251 103.886 67.5533C103.593 67.6153 103.3 67.7056 103.042 67.7845C102.907 67.8184 102.773 67.8804 102.644 67.9199C102.515 67.9594 102.392 67.9988 102.269 68.0552C102.028 68.1455 101.806 68.2301 101.606 68.3203C101.407 68.4106 101.226 68.4895 101.085 68.5572C100.944 68.6249 100.815 68.6813 100.739 68.7264L100.599 68.7659Z" fill="#562911"/>
<path d="M128.603 70.5368C128.468 70.3414 128.321 70.1531 128.164 69.9728C128.023 69.8093 127.848 69.5949 127.642 69.4088C127.437 69.2227 127.197 68.9858 126.939 68.7659C126.67 68.5443 126.388 68.3372 126.095 68.1455C125.794 67.9487 125.476 67.7752 125.146 67.6266C124.827 67.4706 124.494 67.3441 124.15 67.2487C123.819 67.1604 123.482 67.0963 123.142 67.0569C122.822 67.0399 122.501 67.0399 122.181 67.0569C121.884 67.105 121.591 67.169 121.302 67.2487C121.032 67.3615 120.78 67.4799 120.54 67.5984C120.32 67.7318 120.11 67.8807 119.913 68.0439C119.733 68.1793 119.57 68.3345 119.427 68.5064C119.292 68.6643 119.181 68.8166 119.087 68.9407C118.987 69.0711 118.895 69.2067 118.811 69.3468C118.955 69.3437 119.097 69.3324 119.239 69.3129C119.374 69.3129 119.538 69.2735 119.714 69.2396C119.907 69.196 120.102 69.1658 120.3 69.1494C120.523 69.1494 120.751 69.0704 121.009 69.0479C121.272 69.0366 121.534 69.0121 121.794 68.9745C122.075 68.9745 122.38 68.9745 122.644 68.9745L123.529 69.0197L123.98 69.0704C124.132 69.0819 124.283 69.1046 124.431 69.1381C124.578 69.1719 124.73 69.1945 124.876 69.2171C125.025 69.2448 125.172 69.2806 125.316 69.3242C125.603 69.3806 125.902 69.4765 126.16 69.5555C126.295 69.5555 126.424 69.6513 126.552 69.6852C126.681 69.719 126.81 69.7698 126.927 69.8205L127.59 70.0856C127.795 70.1702 127.971 70.2605 128.117 70.3225C128.264 70.3845 128.381 70.4466 128.463 70.4917L128.603 70.5368Z" fill="#562911"/>
<path d="M94.6976 69.2622C94.6082 67.5707 94.6258 65.8756 94.7503 64.1862C94.5862 67.0908 94.6976 69.2622 94.6976 69.2622Z" fill="#CF9166"/>
<path d="M104.431 57.6325C104.431 57.6325 99.1569 67.965 93.8243 70.1815C93.8243 69.0535 94.6682 65.1394 94.8264 63.1484C96.7796 59.9448 99.5702 57.2893 102.921 55.4458C106.271 53.6024 110.065 52.6355 113.924 52.6411L114.235 52.675H114.551V52.7088C122.591 53.6789 121.232 42.6978 132.512 58.0612C134.985 66.9442 134.188 69.1043 134.036 70.2097C121.56 58.7436 104.431 57.6325 104.431 57.6325Z" fill="#562911"/>
<path d="M109.611 63.092C117.388 66.2448 127.73 67.04 133.766 67.04C136.222 67.04 137.974 61.8738 133.356 55.196C129.588 49.776 130.151 47.5312 117.464 46.7811C114.526 46.6325 111.594 47.1643 108.914 48.3321C107.261 48.9234 105.473 49.0734 103.74 48.7664C101.761 48.3985 99.712 48.7588 97.9968 49.776C90.6835 54.288 91.3984 59.4937 91.0292 64.1862C90.4901 70.9542 95.5356 80.1699 95.5356 80.1699C95.5356 80.1699 96.2798 73.5598 97.6686 71.3602C99.7237 67.9378 101.425 64.3298 102.749 60.5878L109.611 63.092Z" fill="#562911"/>
<path d="M105.556 96.7797C96.268 109.853 92.3066 128.928 91.3749 139.255L89.2535 119.87L97.1118 107.163V102.087L105.556 96.7797Z" fill="#E4F5FD"/>
<path d="M115.237 107.462L116.503 112.78L104.361 139.232C105.451 132.983 106.816 126.514 108.814 121.184C112.365 111.72 114.247 107.033 114.774 98.844L117.493 104.196L115.237 107.462Z" fill="#E4F5FD"/>
<path d="M124.695 51.75C128.565 53.9316 132.625 55.7829 136.831 57.2828C138.091 57.734 139.907 57.9314 140.4 56.7188C140.786 55.7826 139.943 54.8069 139.11 54.1977C137.353 52.915 135.318 52.0284 133.157 51.6033C133.613 51.5749 134.056 51.4441 134.45 51.2214C134.844 50.9987 135.179 50.6903 135.427 50.3209C135.675 49.9515 135.83 49.5313 135.88 49.0939C135.929 48.6565 135.872 48.2141 135.712 47.802C131.451 45.6926 126.447 45.6644 121.648 45.6813C117.739 45.6813 113.092 46.11 111.193 49.3981L127.232 52.3027" fill="#562911"/>
<path d="M108.621 50.8476C110.955 48.7753 113.096 46.5107 115.02 44.0796C115.606 43.352 116.116 42.2127 115.372 41.6431C114.786 41.1975 113.936 41.5416 113.338 41.9589C112.072 42.8351 111.026 43.9743 110.279 45.2922C110.351 44.9897 110.349 44.6753 110.274 44.3736C110.198 44.0719 110.051 43.7912 109.844 43.5535C109.637 43.3157 109.375 43.1275 109.079 43.0035C108.784 42.8795 108.462 42.8231 108.14 42.8388C105.796 45.1737 104.718 48.4224 103.74 51.5413C102.937 54.0849 102.263 57.1813 104.179 59.1102L109.541 49.2853" fill="#562911"/>
<path d="M96.6196 208.04C96.6196 208.04 96.0336 208.48 95.0726 209.27C92.9571 211.074 89.2126 214.69 87.2026 219.066C84.337 225.372 85.5677 228.919 85.5677 228.919L149.828 243.516L179.316 211.605L205.1 184.815L214.646 136.835C215.496 132.582 216.826 129.362 212.472 128.285L189.137 122.571" fill="#B6D7E7"/>
<path d="M211.13 128.087L199.668 183.224L191.071 180.071L149.319 223.832L148.088 238.011L85.8723 223.832C83.5283 229.523 85.8723 229.737 85.8723 229.737L150.139 244.305L204.783 212.197L205.399 206.286L162.093 231.356L179.609 212.394L205.393 185.604L217.201 134.72C217.397 133.878 217.383 133.004 217.161 132.168C216.939 131.332 216.515 130.559 215.923 129.911C215.331 129.263 214.588 128.759 213.755 128.44C212.922 128.121 212.022 127.997 211.13 128.076V128.087Z" fill="#7EB5CC"/>
<path d="M203.342 136.237C203.272 139.982 194.107 174.95 192.384 181.464L192.108 182.508L137.423 169.011C137.423 169.011 145.152 132.757 149.336 127.416C153.52 122.075 170.965 122.707 182.68 126.491C192.102 129.542 203.424 130.552 203.342 136.237Z" fill="#00789F"/>
<path d="M192.091 182.508L149.113 226.573L95.6937 214.757L94.469 205.305L139.902 162.751L183.242 179.158L192.091 182.508Z" fill="#00789F"/>
<path d="M197.71 102.008C198.033 104.23 193.392 122.43 191.264 130.541C190.901 131.934 190.614 133.022 190.438 133.688L190.251 134.427L155.712 124.433C155.712 124.433 161.15 98.9794 164.08 95.24C167.01 91.5007 179.257 91.935 187.485 94.5971C191.188 95.7984 193.55 96.8531 195.056 97.8796C196.04 98.499 196.812 99.3837 197.277 100.423C197.492 100.931 197.638 101.464 197.71 102.008Z" fill="#00789F"/>
<path d="M197.71 102.008C198.033 104.23 193.439 120.203 191.317 128.313L184.631 127.129C184.631 127.129 189.964 103.147 192.899 99.3967C193.477 98.7231 194.22 98.1996 195.062 97.8739C196.046 98.4933 196.818 99.3781 197.283 100.418C197.496 100.928 197.64 101.462 197.71 102.008Z" fill="#135868"/>
<path d="M203.342 136.237C203.881 139.943 193.626 176.732 191.909 183.241L182.492 180.088C182.492 180.088 191.868 142.56 196.046 137.224C197.259 135.645 203.207 135.431 203.342 136.237Z" fill="#135868"/>
<path d="M192.091 182.508L149.113 226.573L95.6937 214.757L94.469 205.305L147.883 217.515L183.242 179.158L192.091 182.508Z" fill="#135868"/>
<path d="M144.361 173.292C138.407 179.872 132.45 186.452 126.488 193.032C124.841 194.854 123.136 196.777 122.574 199.129C122.011 201.481 123.007 204.374 125.38 205.158L149.266 182.835C151.217 181.013 153.497 179.067 156.21 179.186L144.771 196.596C142.55 199.98 140.253 203.579 140.13 207.578C141.8 208.999 144.343 207.476 145.99 206.004L159.234 193.974C165.926 187.894 172.77 181.617 176.714 173.613C180.107 166.716 181.115 158.989 182.082 151.414C181.537 151.414 182.639 151.33 182.082 151.33C183.658 144.596 180.611 137.14 175.595 132.21C176.069 129.723 178.525 128.127 180.617 126.604C182.709 125.081 184.854 122.837 184.297 120.361C183.846 118.341 181.601 117.027 179.457 117.016C177.312 117.005 175.296 118.037 173.597 119.306C166.565 124.557 164.068 133.507 162.041 141.826C160.013 150.145 157.675 159.096 150.854 164.573C147.338 167.393 142.404 169.919 142.539 174.296" fill="#135868"/>
<path d="M101.788 79.0927L92.4473 70.7342C91.58 69.9615 90.2732 71.2136 91.1463 71.9919L100.487 80.3448C101.378 81.14 102.655 79.871 101.788 79.0927Z" fill="#7EB5CC"/>
<path d="M90.9296 60.4581C98.4848 63.3378 106.433 65.1501 114.528 65.8387C121.695 66.4027 134.991 66.8257 134.991 66.8257C135.649 66.2949 136.122 65.5821 136.345 64.784C136.426 63.8221 136.384 62.8542 136.222 61.902C128.36 62.3131 120.476 61.9825 112.682 60.915C104.372 59.787 91.9023 56.042 91.9023 56.042L90.9296 60.4581Z" fill="#2D4C87"/>
<path d="M112.717 64.3215C112.5 66.3237 115.096 68.2244 118.524 68.5741C121.952 68.9238 124.912 67.5871 125.134 65.5849C125.357 63.5827 122.755 61.6764 119.327 61.3267C115.899 60.977 112.94 62.3193 112.717 64.3215Z" fill="#7EB5CC"/>
<path d="M113.883 64.502C113.696 66.194 115.881 67.7902 118.765 68.0834C121.648 68.3767 124.132 67.2487 124.314 65.568C124.496 63.8873 122.316 62.2855 119.433 61.9922C116.549 61.699 114.065 62.8213 113.883 64.502Z" fill="white"/>
<path d="M136.134 174.358C136.134 174.358 131.498 176.574 125.972 186.867C120.446 197.16 117.024 199.213 121.132 201.836C125.24 204.459 124.83 204.521 130.871 194.95C136.913 185.378 146.143 177.77 146.143 177.77L136.134 174.358Z" fill="#F0C0B2"/>
<path d="M154.768 177.409C154.768 177.409 150.127 179.626 144.607 189.919C139.087 200.212 135.659 202.265 139.761 204.893C143.863 207.521 143.459 207.578 149.506 198.012C155.554 188.447 164.771 180.827 164.771 180.827L154.768 177.409Z" fill="#F0C0B2"/>
<path d="M160.253 143.846C160.3 144.164 160.248 144.488 160.103 144.778C159.958 145.067 159.727 145.309 159.439 145.472C159.151 145.635 158.82 145.712 158.487 145.694C158.153 145.676 157.833 145.563 157.566 145.37C157.3 145.176 157.099 144.911 156.989 144.607C156.879 144.304 156.865 143.976 156.949 143.665C157.032 143.354 157.21 143.074 157.459 142.86C157.709 142.646 158.018 142.508 158.349 142.464C158.568 142.433 158.792 142.445 159.006 142.498C159.221 142.552 159.423 142.645 159.6 142.774C159.777 142.902 159.925 143.063 160.038 143.247C160.15 143.431 160.223 143.634 160.253 143.846Z" fill="white"/>
<path d="M171.411 145.915C171.457 146.233 171.405 146.557 171.26 146.847C171.115 147.136 170.884 147.377 170.597 147.541C170.31 147.704 169.979 147.781 169.646 147.763C169.312 147.745 168.992 147.633 168.726 147.44C168.459 147.247 168.258 146.982 168.147 146.68C168.037 146.377 168.022 146.049 168.105 145.738C168.188 145.427 168.365 145.146 168.613 144.932C168.861 144.718 169.17 144.579 169.5 144.534C169.944 144.474 170.394 144.586 170.752 144.845C171.11 145.104 171.347 145.489 171.411 145.915Z" fill="white"/>
<path d="M159.978 130.608C159.978 130.608 156.954 126.164 152.477 133.992C150.995 136.581 151.399 137.94 151.399 137.94L158.249 145.504L163.207 129.356L159.978 130.608Z" fill="#FCF617"/>
<path d="M179.99 152.65C178.554 159.102 176.972 164.048 176.972 164.048L152.741 163.117C152.741 163.117 153.596 138.984 155.671 133.558C156.07 132.434 156.796 131.443 157.763 130.704C158.703 130.012 159.813 129.567 160.986 129.413C162.005 129.267 163.043 129.284 164.057 129.464L171.171 129.785C172.444 129.796 173.706 130.023 174.898 130.456C176.087 130.865 177.155 131.546 178.009 132.441C178.554 133.037 178.984 133.721 179.281 134.461C181.215 139.305 181.42 146.203 179.99 152.65Z" fill="#FCF617"/>
<path d="M184.83 115.177C184.83 115.177 188.504 112.651 190.28 115.51C192.055 118.37 186.512 124.027 182.31 121.122L184.83 115.177Z" fill="#F0C0B2"/>
<path d="M183.875 117.428L182.574 120.49C186.412 122.346 190.403 117.574 188.774 116.288C187.45 115.251 184.988 116.621 183.875 117.428Z" fill="#CF9166"/>
<path d="M189.079 117.603V117.529C189.079 117.479 189.079 117.405 189.079 117.321C189.072 117.092 189.005 116.869 188.885 116.672C188.85 116.616 188.804 116.566 188.751 116.525L188.668 116.458L188.604 116.424L188.499 116.362L188.387 116.317C188.349 116.302 188.31 116.291 188.27 116.283C188.23 116.269 188.189 116.258 188.147 116.249C187.778 116.173 187.397 116.173 187.028 116.249C186.829 116.287 186.634 116.336 186.442 116.396L185.885 116.587C185.522 116.723 185.182 116.864 184.895 116.988L183.922 117.422C183.984 117.349 184.051 117.28 184.121 117.213C184.305 117.035 184.5 116.87 184.707 116.717C184.836 116.621 184.977 116.52 185.135 116.424C185.293 116.328 185.469 116.232 185.651 116.142C186.043 115.946 186.461 115.8 186.893 115.708C187.121 115.664 187.352 115.643 187.584 115.646C187.819 115.644 188.053 115.681 188.276 115.753L188.434 115.809L188.586 115.882L188.733 115.967L188.856 116.063L188.909 116.108L188.938 116.136L188.967 116.164C189.007 116.198 189.042 116.236 189.073 116.277C189.129 116.357 189.176 116.442 189.213 116.531C189.274 116.678 189.298 116.836 189.284 116.994C189.28 117.106 189.261 117.218 189.225 117.326C189.203 117.396 189.176 117.464 189.143 117.529L189.079 117.603Z" fill="#CF9166"/>
<path d="M160.259 107.874C160.259 107.874 158.706 103.796 155.571 105.189C152.436 106.582 153.696 114.269 158.87 114.151L160.259 107.874Z" fill="#F0C0B2"/>
<path d="M159.726 110.254L159.011 113.485C154.751 112.921 154.253 106.83 156.351 106.655C158.05 106.52 159.281 108.979 159.726 110.254Z" fill="#CF9166"/>
<path d="M155.331 107.569C155.348 107.55 155.361 107.53 155.372 107.507L155.495 107.338C155.637 107.153 155.824 107.006 156.04 106.909C156.104 106.886 156.171 106.869 156.239 106.858H156.462H156.585H156.702C156.745 106.864 156.786 106.876 156.825 106.892L156.942 106.932C157.288 107.079 157.597 107.294 157.851 107.563C157.991 107.704 158.124 107.85 158.249 108.003C158.37 108.158 158.488 108.31 158.601 108.46C158.818 108.77 159.011 109.069 159.187 109.334L159.732 110.22C159.724 110.123 159.71 110.027 159.691 109.932C159.642 109.684 159.575 109.439 159.492 109.199C159.439 109.052 159.38 108.894 159.304 108.725C159.228 108.556 159.146 108.387 159.046 108.212C158.838 107.839 158.58 107.494 158.279 107.186C158.116 107.024 157.937 106.879 157.745 106.751C157.55 106.628 157.337 106.533 157.112 106.469L156.942 106.43H156.772H156.462H156.392H156.304L156.151 106.469C156.059 106.503 155.97 106.547 155.888 106.599C155.754 106.69 155.643 106.808 155.559 106.943C155.497 107.04 155.448 107.144 155.413 107.253C155.384 107.343 155.372 107.417 155.36 107.462L155.331 107.569Z" fill="#CF9166"/>
<path d="M171.434 121.5L164.473 121.302C164.473 121.663 163.81 133.011 163.887 131.782C163.887 131.782 164.332 133.885 167.403 134.038C170.473 134.19 171.317 132.007 171.317 132.007L171.434 121.5Z" fill="#F0C0B2"/>
<path d="M171.481 125.047L164.244 124.568C164.244 124.568 164.057 129.475 164.027 129.475C163.998 129.475 164.385 131.313 167.473 131.449C170.561 131.584 171.141 129.796 171.141 129.796L171.481 125.047Z" fill="#F48470"/>
<path d="M171.622 124.41L164.971 122.436C164.971 122.436 164.478 123.688 164.051 124.754C163.986 124.912 165.809 125.758 166.008 125.848C167.553 126.534 169.229 126.906 170.93 126.942L171.622 124.41Z" fill="#CF9166"/>
<path d="M189.038 113.536C186.477 121.517 177.206 125.854 168.328 123.214C159.451 120.575 154.329 111.963 156.89 103.976C159.451 95.9902 168.727 91.6586 177.605 94.2982C186.483 96.9377 191.622 105.55 189.038 113.536Z" fill="#562911"/>
<path d="M187.391 112.831C188.663 108.319 188.018 103.542 184.01 100.463C181.908 98.9461 179.52 97.8387 176.978 97.2027C174.511 96.509 171.85 95.883 169.266 96.0747C164.642 96.3793 161.337 99.3459 159.615 103.283C159.445 103.672 159.286 104.061 159.146 104.456C158.818 105.364 158.454 106.244 158.196 107.174C157.59 109.268 157.308 111.436 157.359 113.609C157.397 116.27 158.209 118.866 159.703 121.105C160.589 122.372 161.697 123.481 162.978 124.382C164.97 125.879 167.349 126.824 169.858 127.117C171.626 127.335 173.419 127.261 175.161 126.897C177.998 126.245 180.548 124.749 182.451 122.622C184.044 120.842 185.305 118.81 186.178 116.616C186.679 115.429 187.072 114.202 187.35 112.95L187.391 112.831Z" fill="#F0C0B2"/>
<path d="M175.442 113.677C175.331 114.093 175.348 114.53 175.491 114.937C175.634 115.343 175.897 115.701 176.247 115.966C176.598 116.231 177.021 116.393 177.465 116.43C177.909 116.468 178.355 116.381 178.748 116.179C179.141 115.977 179.465 115.669 179.68 115.293C179.895 114.917 179.991 114.489 179.958 114.061C179.924 113.634 179.762 113.224 179.491 112.884C179.22 112.543 178.851 112.286 178.431 112.143C178.13 112.054 177.814 112.024 177.501 112.053C177.188 112.082 176.883 112.17 176.606 112.313C176.328 112.455 176.082 112.649 175.883 112.883C175.683 113.118 175.534 113.387 175.442 113.677Z" fill="#CF9166"/>
<path d="M175.636 113.147C175.524 113.562 175.54 114 175.682 114.407C175.824 114.814 176.086 115.172 176.436 115.438C176.786 115.704 177.209 115.867 177.653 115.905C178.097 115.944 178.543 115.857 178.937 115.655C179.331 115.454 179.655 115.147 179.871 114.771C180.086 114.395 180.183 113.967 180.15 113.539C180.117 113.111 179.955 112.701 179.684 112.36C179.413 112.019 179.045 111.762 178.624 111.619C178.324 111.53 178.008 111.499 177.695 111.528C177.382 111.556 177.078 111.644 176.801 111.786C176.523 111.928 176.277 112.122 176.078 112.355C175.878 112.588 175.728 112.858 175.636 113.147Z" fill="black"/>
<path d="M176.603 112.786C176.539 112.951 176.528 113.13 176.57 113.301C176.612 113.471 176.706 113.626 176.84 113.746C176.974 113.865 177.142 113.943 177.322 113.97C177.503 113.997 177.687 113.972 177.853 113.898C178.018 113.824 178.157 113.704 178.252 113.554C178.346 113.404 178.392 113.23 178.384 113.055C178.376 112.879 178.313 112.71 178.205 112.569C178.096 112.428 177.947 112.321 177.775 112.262C177.662 112.221 177.542 112.203 177.422 112.207C177.302 112.212 177.184 112.239 177.075 112.288C176.966 112.337 176.868 112.406 176.787 112.492C176.706 112.577 176.643 112.677 176.603 112.786Z" fill="white"/>
<path d="M162.533 109.447C162.422 109.863 162.439 110.3 162.582 110.707C162.725 111.113 162.987 111.471 163.338 111.736C163.688 112.001 164.111 112.163 164.555 112.2C164.999 112.238 165.445 112.151 165.839 111.949C166.232 111.747 166.556 111.439 166.771 111.063C166.985 110.687 167.082 110.259 167.048 109.831C167.015 109.404 166.852 108.994 166.581 108.654C166.31 108.313 165.942 108.056 165.522 107.913C165.221 107.824 164.905 107.794 164.591 107.823C164.278 107.852 163.974 107.94 163.696 108.083C163.419 108.225 163.173 108.419 162.973 108.653C162.774 108.888 162.624 109.157 162.533 109.447Z" fill="#CF9166"/>
<path d="M162.726 108.917C162.614 109.332 162.63 109.77 162.772 110.177C162.914 110.584 163.176 110.942 163.526 111.208C163.876 111.474 164.299 111.637 164.743 111.675C165.187 111.714 165.634 111.627 166.027 111.426C166.421 111.224 166.746 110.917 166.961 110.541C167.176 110.165 167.273 109.737 167.24 109.309C167.207 108.881 167.045 108.471 166.774 108.13C166.503 107.789 166.135 107.532 165.715 107.389C165.414 107.3 165.099 107.269 164.786 107.298C164.473 107.326 164.169 107.414 163.891 107.556C163.614 107.698 163.368 107.892 163.168 108.125C162.968 108.359 162.818 108.628 162.726 108.917Z" fill="black"/>
<path d="M163.693 108.556C163.629 108.721 163.618 108.9 163.66 109.071C163.703 109.241 163.797 109.396 163.931 109.516C164.065 109.635 164.233 109.713 164.413 109.74C164.593 109.767 164.778 109.742 164.943 109.668C165.109 109.594 165.248 109.474 165.342 109.324C165.437 109.174 165.483 109 165.474 108.825C165.466 108.649 165.404 108.48 165.295 108.339C165.187 108.198 165.037 108.091 164.865 108.032C164.753 107.991 164.633 107.973 164.512 107.977C164.392 107.982 164.274 108.009 164.165 108.058C164.056 108.107 163.958 108.176 163.877 108.262C163.796 108.347 163.734 108.447 163.693 108.556Z" fill="white"/>
<path d="M171.481 110.812C171.481 110.812 170.942 113.694 169.647 113.068C167.139 111.867 165.451 117.315 170.069 116.452C171.827 116.114 172.776 111.241 172.776 111.241L171.481 110.812Z" fill="#F48470"/>
<path d="M166.213 118.003C166.213 118.003 171.27 120.372 174.698 118.167C174.698 118.167 175.132 124.252 169.207 123.322C165.463 122.729 166.213 118.003 166.213 118.003Z" fill="#B43128"/>
<path d="M166.213 118.003C166.213 118.003 166.213 118.043 166.213 118.116C166.694 118.37 167.321 119.723 168.621 120.05C169.45 120.248 170.311 120.281 171.153 120.146C171.677 120.095 172.192 119.983 172.688 119.813C173.133 119.513 173.496 119.114 173.749 118.652C170.403 119.966 166.213 118.003 166.213 118.003Z" fill="white"/>
<path d="M168.586 123.474C165.24 122.481 165.908 118.009 165.92 117.958C165.926 117.914 165.942 117.872 165.969 117.835C165.996 117.799 166.031 117.769 166.072 117.749C166.115 117.728 166.162 117.718 166.21 117.718C166.258 117.718 166.305 117.728 166.348 117.749C166.395 117.749 171.282 120.005 174.552 117.93C174.598 117.905 174.651 117.891 174.704 117.891C174.757 117.891 174.81 117.905 174.856 117.93C174.903 117.953 174.943 117.988 174.972 118.03C175 118.073 175.017 118.122 175.021 118.172C175.021 118.291 175.214 121.156 173.38 122.735C172.366 123.604 170.954 123.902 169.184 123.626C168.982 123.587 168.782 123.536 168.586 123.474ZM166.471 118.426C166.383 119.515 166.4 122.588 169.254 123.04C170.836 123.288 172.079 123.04 172.946 122.289C174.147 121.257 174.364 119.52 174.399 118.674C171.44 120.203 167.684 118.928 166.471 118.426Z" fill="#F05B4E"/>
<path d="M164.238 117.112C164.11 117.543 163.851 117.928 163.494 118.216C163.137 118.505 162.7 118.685 162.236 118.733C161.773 118.781 161.305 118.695 160.893 118.486C160.481 118.277 160.142 117.955 159.921 117.56C159.7 117.165 159.607 116.716 159.652 116.269C159.698 115.823 159.881 115.4 160.177 115.054C160.474 114.708 160.871 114.455 161.318 114.327C161.764 114.2 162.241 114.203 162.685 114.337C162.977 114.421 163.248 114.559 163.484 114.744C163.719 114.929 163.915 115.157 164.059 115.415C164.203 115.672 164.293 115.955 164.324 116.246C164.355 116.537 164.326 116.832 164.238 117.112Z" fill="#F49B77"/>
<path d="M180.675 120.513C180.547 120.944 180.288 121.328 179.931 121.617C179.575 121.906 179.137 122.086 178.673 122.134C178.21 122.182 177.742 122.096 177.33 121.887C176.918 121.678 176.58 121.356 176.359 120.961C176.138 120.566 176.044 120.117 176.089 119.67C176.135 119.224 176.318 118.801 176.615 118.455C176.911 118.109 177.308 117.856 177.755 117.728C178.202 117.601 178.678 117.604 179.123 117.738C179.414 117.821 179.686 117.959 179.922 118.144C180.158 118.329 180.354 118.557 180.499 118.815C180.643 119.072 180.733 119.355 180.763 119.647C180.793 119.938 180.764 120.233 180.675 120.513Z" fill="#F49B77"/>
<path d="M183.242 111.032C183.198 110.841 183.143 110.653 183.078 110.468C183.014 110.304 182.949 110.09 182.85 109.904C182.75 109.718 182.639 109.458 182.51 109.222C182.372 108.977 182.217 108.742 182.047 108.517C181.871 108.281 181.675 108.06 181.461 107.857C181.262 107.65 181.045 107.461 180.81 107.293C180.585 107.136 180.348 106.995 180.101 106.87C179.861 106.77 179.614 106.685 179.363 106.616C179.123 106.568 178.88 106.536 178.636 106.52C178.396 106.52 178.167 106.52 177.951 106.571C177.751 106.612 177.555 106.668 177.365 106.74C177.187 106.792 177.015 106.864 176.855 106.954C176.702 107.039 176.574 107.124 176.468 107.191C176.352 107.262 176.241 107.339 176.134 107.422C176.242 107.463 176.354 107.495 176.468 107.518L176.855 107.592C177.019 107.615 177.182 107.649 177.341 107.693C177.517 107.738 177.71 107.755 177.927 107.812C178.131 107.876 178.339 107.931 178.548 107.975C178.759 108.048 178.982 108.133 179.205 108.195L179.867 108.471L180.195 108.641C180.306 108.691 180.414 108.747 180.517 108.81L180.834 108.996C180.939 109.052 181.033 109.137 181.133 109.199C181.338 109.323 181.525 109.475 181.719 109.611C181.812 109.667 181.894 109.757 181.982 109.819C182.07 109.881 182.152 109.955 182.228 110.028C182.305 110.101 182.527 110.293 182.656 110.417C182.785 110.541 182.891 110.648 182.984 110.739C183.078 110.829 183.148 110.908 183.195 110.964L183.242 111.032Z" fill="#562911"/>
<path d="M161.226 106.447C161.226 106.447 161.367 106.272 161.625 106.012C161.753 105.894 161.912 105.73 162.093 105.584C162.275 105.437 162.486 105.274 162.715 105.116C162.95 104.955 163.195 104.806 163.447 104.67C163.707 104.532 163.977 104.414 164.256 104.315C164.527 104.212 164.807 104.134 165.094 104.084C165.368 104.034 165.646 104.005 165.926 103.999C166.187 104.011 166.447 104.037 166.705 104.078C166.942 104.137 167.175 104.21 167.403 104.298C167.613 104.405 167.813 104.523 167.989 104.636C168.157 104.76 168.316 104.896 168.463 105.042C168.599 105.165 168.719 105.304 168.821 105.454C168.92 105.595 169.002 105.725 169.067 105.826C169.196 106.041 169.26 106.176 169.26 106.176C169.144 106.164 169.028 106.145 168.914 106.12C168.786 106.095 168.658 106.063 168.533 106.024C168.374 105.976 168.212 105.938 168.047 105.911C167.871 105.877 167.69 105.815 167.461 105.781C167.233 105.747 167.045 105.714 166.828 105.663C166.611 105.612 166.365 105.623 166.137 105.584L165.416 105.556H165.047C164.924 105.547 164.801 105.547 164.678 105.556L164.308 105.589C164.191 105.589 164.062 105.629 163.945 105.64C163.705 105.668 163.47 105.725 163.242 105.77C163.131 105.79 163.022 105.817 162.914 105.849C162.802 105.849 162.697 105.9 162.597 105.933C162.392 105.99 162.205 106.041 162.041 106.103C161.877 106.165 161.718 106.21 161.595 106.255C161.472 106.3 161.373 106.334 161.302 106.368L161.226 106.447Z" fill="#562911"/>
<path d="M187.59 113.045C188.163 111.782 188.656 110.486 189.067 109.165C188.323 111.421 187.59 113.045 187.59 113.045Z" fill="#CF9166"/>
<path d="M175.067 98.9004C175.067 98.9004 184.555 110.812 187.959 113.987C188.299 113.147 188.827 109.91 189.307 108.347C188.778 105.362 187.446 102.561 185.443 100.225C183.441 97.889 180.837 96.0983 177.892 95.0314L177.646 94.9693L177.406 94.8847C170.96 93.3901 172.278 94.4053 162.369 97.2422C157.821 103.328 157.517 101.929 157.306 102.815C163.499 103.239 169.683 101.876 175.067 98.9004Z" fill="#562911"/>
<path d="M177.98 132.464C176.501 135.304 175.233 138.24 174.183 141.251C172.425 146.632 170.919 163.811 170.919 163.811L167.871 163.698C167.871 163.698 169.905 143.242 171.757 137.997C172.647 135.429 173.686 132.912 174.868 130.456C176.06 130.871 177.128 131.561 177.98 132.464Z" fill="#FF9C1A"/>
<path d="M160.957 129.424C160.16 132.081 158.689 136.903 157.476 140.603C155.718 145.977 156.046 163.253 156.046 163.253L152.999 163.14C152.999 163.14 153.192 142.61 155.044 137.365C156.11 134.348 157.095 132.086 157.734 130.716C158.673 130.023 159.784 129.578 160.957 129.424Z" fill="#FF9C1A"/>
<path d="M178.144 146.423L185.598 144.223C185.598 144.223 185.446 136.993 182.668 134.635C179.89 132.278 177.98 132.481 177.98 132.481L178.144 146.423Z" fill="#FCF617"/>
<path d="M153.673 159.079L156.696 141.567L171.018 144.105L169.26 162.418L176.972 164.048C176.972 164.048 176.943 173.895 175.448 177.387C173.954 180.878 163.09 189.005 163.09 189.005L159.855 184.916C159.037 183.875 157.982 183.029 156.771 182.442C155.56 181.855 154.225 181.544 152.87 181.532H151.024C148.287 179.778 147.772 179.789 144.619 178.904C144.39 178.842 143.248 178.34 141.906 177.702C140.337 176.979 138.616 176.616 136.877 176.643C135.138 176.669 133.429 177.084 131.885 177.855L133.491 173.76C134.131 172.12 135.131 170.631 136.421 169.395C139.818 166.138 143.785 163.484 148.141 161.555L153.673 159.079Z" fill="#FF9C1A"/>
<path d="M191.212 108.257C195.771 107.642 201.174 110.789 201.08 118.561C200.986 126.333 192.29 132.577 192.29 132.577C192.29 132.577 195.173 124.732 194.183 122.177C193.192 119.622 191.669 119.836 190.854 116.362C190.04 112.888 186.647 108.872 191.212 108.257Z" fill="#562911"/>
<path d="M157.558 99.9551C153.895 97.2648 147.596 97.4566 143.705 104.281C139.814 111.105 144.25 120.637 144.25 120.637C144.25 120.637 145.726 112.436 147.895 110.677C150.063 108.917 151.276 109.819 153.755 107.18C156.233 104.54 161.22 102.64 157.558 99.9551Z" fill="#562911"/>
<path d="M192.178 105.52L192.041 105.491C191.251 105.322 190.468 105.801 190.293 106.561L188.931 112.464C188.756 113.224 189.254 113.977 190.044 114.146L190.181 114.175C190.971 114.344 191.753 113.865 191.929 113.104L193.291 107.202C193.466 106.442 192.968 105.689 192.178 105.52Z" fill="#FF9C1A"/>
<path d="M158.641 96.6249L158.504 96.5955C157.714 96.4267 156.931 96.9061 156.756 97.6663L155.394 103.569C155.219 104.329 155.717 105.082 156.507 105.251L156.644 105.28C157.434 105.449 158.216 104.969 158.392 104.209L159.754 98.307C159.929 97.5468 159.431 96.7937 158.641 96.6249Z" fill="#FF9C1A"/>
<path d="M185.604 144.223C185.604 144.223 188.082 155.001 183.599 158.323C179.117 161.645 159.702 147.528 159.702 147.528L163.705 145.199C163.705 145.199 179.052 152.672 180.06 151.042C181.068 149.412 180.81 145.571 180.81 145.571L185.604 144.223Z" fill="#F0C0B2"/>
<path d="M151.411 137.901C151.411 137.901 142.164 148.38 145.756 151.77C149.348 155.159 166.031 151.567 166.031 151.567L160.863 148.341C160.863 148.341 150.737 149.807 150.713 148.217C150.713 146.485 154.329 140.377 154.335 141.161L151.411 137.901Z" fill="#F0C0B2"/>
<path d="M164.853 151.804C165.598 151.663 166.025 151.567 166.025 151.567L160.857 148.341C158.325 148.707 155.77 148.911 153.21 148.95C153.297 149.192 161.267 150.512 164.853 151.804Z" fill="#DDAB9F"/>
<path d="M163.705 145.171C163.705 145.171 161.396 143.693 159.679 143.626C157.962 143.558 157.921 143.118 157.61 143.755C157.3 144.393 156.48 144.505 155.806 144.669C155.492 144.775 155.207 144.946 154.972 145.172C154.737 145.397 154.557 145.671 154.446 145.972C154.282 146.44 153.538 147.737 153.538 148.256C153.528 148.529 153.568 148.802 153.655 149.063L161.449 148.307L163.705 145.171Z" fill="#F0C0B2"/>
<path d="M127.097 200.24C127.097 200.24 127.238 204.239 124.642 206.399C124.124 206.828 123.528 207.161 122.884 207.38C119.86 208.395 118.108 208.621 113.209 204.808C108.31 200.996 107.349 200.612 106.763 198.813C106.248 197.318 106.253 196.241 106.587 195.474C107.654 193.026 112.043 193.697 113.461 193.731C115.325 193.782 120.136 197.008 120.136 197.008L122.785 198.136C124.259 198.765 125.699 199.467 127.097 200.24Z" fill="#FF9C1A"/>
<path d="M124.642 206.399C124.124 206.828 123.528 207.161 122.884 207.38C119.86 208.395 118.108 208.621 113.209 204.808C108.31 200.996 107.349 200.612 106.763 198.813C106.248 197.318 106.253 196.241 106.587 195.474C108.14 195.762 109.517 197.003 110.953 197.849C112.389 198.695 119.544 203.669 121.888 204.932C122.842 205.356 123.763 205.846 124.642 206.399Z" fill="#E27F07"/>
<path d="M146.5 201.498C146.5 201.498 146.641 205.496 144.045 207.656C143.528 208.086 142.931 208.417 142.287 208.632C139.263 209.653 137.511 209.879 132.612 206.06C127.713 202.242 126.752 201.87 126.166 200.071C125.65 198.57 125.662 197.499 125.996 196.732C127.057 194.284 131.446 194.955 132.864 194.989C134.733 195.034 139.544 198.266 139.544 198.266L142.187 199.394C143.662 200.021 145.102 200.724 146.5 201.498Z" fill="#FF9C1A"/>
<path d="M144.045 207.656C143.528 208.086 142.931 208.417 142.287 208.632C139.263 209.653 137.511 209.879 132.612 206.06C127.713 202.242 126.752 201.87 126.166 200.071C125.65 198.57 125.662 197.499 125.996 196.732C127.543 197.014 128.926 198.26 130.356 199.106C131.786 199.952 138.964 204.927 141.302 206.19C142.252 206.615 143.168 207.105 144.045 207.656Z" fill="#E27F07"/>
<path d="M166.971 120.194L148.756 117.081C148.332 117.008 147.928 117.28 147.852 117.688L147.839 117.76C147.764 118.168 148.046 118.558 148.47 118.63L166.685 121.743C167.109 121.816 167.513 121.544 167.589 121.136L167.602 121.064C167.677 120.656 167.395 120.267 166.971 120.194Z" fill="#562911"/>
<path d="M136.45 122.583L138.958 119.03C138.958 119.03 145 111.241 147.074 112.092C147.353 112.193 147.609 112.347 147.825 112.544C148.042 112.741 148.216 112.978 148.337 113.241C148.457 113.503 148.522 113.786 148.528 114.073C148.533 114.36 148.479 114.646 148.369 114.912C148.369 114.912 150.584 113.987 151.44 116.181C151.641 116.804 151.62 117.472 151.381 118.082C151.381 118.082 152.987 118.719 153.046 119.661C153.108 120.414 152.948 121.169 152.583 121.838C152.583 121.838 153.614 121.889 152.799 123.767C151.985 125.645 142.369 126.441 142.369 126.441L136.45 122.583Z" fill="#F0C0B2"/>
<path d="M90.3904 121.545C84.3546 108.827 88.7203 104.112 94.7796 102.369C96.4614 101.884 94.299 102.888 94.7796 102.369C96.4145 100.604 95.471 107.293 95.2015 110.902C94.9319 114.512 105.914 134.641 122.521 127.433C140.904 119.447 138.401 118.279 138.401 118.279L142.398 126.424C142.398 126.424 125.884 135.205 116.837 137.484C105.726 140.275 94.6037 130.422 90.3904 121.545Z" fill="#B6D7E7"/>
<path d="M185.51 178.368C184.666 181.188 185.826 184.008 188.112 184.64C190.397 185.271 192.929 183.483 193.773 180.647C194.616 177.81 193.45 175.007 191.171 174.369C188.891 173.732 186.348 175.531 185.51 178.368Z" fill="#B6D7E7"/>
<path d="M188.071 179.05C187.485 181.047 188.299 182.998 189.911 183.472C191.522 183.946 193.304 182.654 193.902 180.652C194.499 178.65 193.673 176.676 192.061 176.23C190.45 175.785 188.692 177.048 188.071 179.05Z" fill="#7EB5CC"/>
<path d="M150.139 166.693L150.08 167.793C149.83 172.417 150.775 177.028 152.832 181.213C154.889 185.399 157.992 189.027 161.865 191.774L169.078 196.89C175.161 201.203 182.611 203.353 190.156 202.971C197.702 202.59 204.876 199.701 210.456 194.797L214.054 191.639C217.184 188.891 219.177 185.148 219.668 181.098L222.434 158.363C222.56 157.329 222.28 156.286 221.649 155.44C221.018 154.594 220.082 154.005 219.023 153.789L212.765 152.509L210.925 161.375C211.489 161.452 212.032 161.636 212.522 161.915C213.013 162.195 213.441 162.565 213.783 163.004C214.125 163.443 214.373 163.942 214.514 164.473C214.655 165.005 214.686 165.558 214.605 166.101L213.064 176.501C212.475 180.469 210.444 184.108 207.333 186.772L205.399 188.424C201.073 192.124 195.546 194.264 189.763 194.478C183.98 194.692 178.299 192.967 173.69 189.597L167.244 184.871C164.846 183.116 162.97 180.786 161.802 178.113C160.635 175.44 160.218 172.519 160.593 169.643L150.139 166.693Z" fill="#B6D7E7"/>
<path d="M177.558 250.092C177.345 250.091 177.133 250.068 176.925 250.024C174.786 249.562 172.647 248.969 170.579 248.4C166.893 247.385 163.09 246.336 159.245 245.986C157.03 245.783 154.669 245.772 152.395 245.783C146.342 245.783 140.089 245.783 135.401 242.055C129.377 237.238 129.143 228.846 129.395 221.362L131.293 165.43L132.524 165.464L130.678 221.401C130.432 228.609 130.637 236.669 136.239 241.141C140.564 244.599 146.324 244.599 152.424 244.593C154.739 244.593 157.112 244.593 159.392 244.802C163.347 245.168 167.209 246.228 170.942 247.261C172.999 247.825 175.12 248.389 177.23 248.868C180.084 249.494 183.09 242.399 185.791 236.15C188.135 230.679 190.362 225.513 192.823 224.091L193.456 225.107C191.341 226.325 189.096 231.548 186.928 236.601C183.928 243.533 181.109 250.092 177.558 250.092Z" fill="#562911"/>
<path d="M168.182 245.997H167.877C165.662 245.794 163.301 245.783 161.027 245.794C154.997 245.794 148.721 245.794 144.033 242.066C138.009 237.25 137.774 228.857 138.026 221.373L139.925 165.441L141.156 165.475L139.257 221.412C139.011 228.62 139.216 236.68 144.818 241.152C149.143 244.61 154.897 244.61 160.998 244.604C163.342 244.604 165.686 244.604 167.971 244.813C170.538 245.038 173.098 239.889 175.355 235.338C178.056 229.872 180.629 224.718 184.092 225.468C185 225.665 185.721 225.84 186.313 225.987C188.727 226.551 188.727 226.551 190.778 225.315C191.311 224.988 191.95 224.588 192.806 224.103L193.439 225.118C192.606 225.597 191.962 225.992 191.434 226.314C189.008 227.791 188.862 227.814 186.02 227.131C185.434 226.99 184.719 226.816 183.816 226.624C181.297 226.06 178.73 231.266 176.462 235.845C173.872 241.057 171.428 245.997 168.182 245.997Z" fill="#562911"/>
<path d="M176.743 245.997H176.445C174.229 245.794 171.868 245.783 169.588 245.794C163.564 245.794 157.282 245.794 152.624 242.066C146.594 237.25 146.365 228.857 146.617 221.373L148.516 165.441L149.746 165.475L147.842 221.412C147.602 228.62 147.807 236.68 153.409 241.152C157.734 244.61 163.494 244.61 169.588 244.604C171.932 244.604 174.276 244.604 176.562 244.813C179.123 245.038 181.689 239.889 183.945 235.338C186.647 229.872 189.219 224.718 192.683 225.468C193.591 225.665 194.312 225.84 194.904 225.987C197.318 226.551 197.318 226.551 199.369 225.315C199.902 224.988 200.541 224.588 201.396 224.103L202.029 225.118C201.197 225.597 200.553 225.992 200.025 226.314C197.599 227.791 197.447 227.814 194.611 227.131C194.025 226.99 193.304 226.816 192.407 226.624C189.882 226.06 187.321 231.266 185.053 235.845C182.469 241.057 180.025 245.997 176.743 245.997Z" fill="#562911"/>
<path d="M163.312 242.844C162.539 242.832 161.796 242.552 161.22 242.055C155.19 237.238 154.962 228.846 155.214 221.362L157.112 165.43L158.343 165.464L156.462 221.401C156.222 228.609 156.427 236.669 162.023 241.141C162.236 241.334 162.492 241.478 162.771 241.563C163.05 241.647 163.345 241.671 163.635 241.632C165.979 241.271 168.832 236.877 171.592 232.608C175.314 226.889 179.169 220.978 183.465 221.373C186.852 221.683 187.69 222.501 188.575 223.398C189.295 224.114 190.04 224.858 192.706 225.434L193.38 225.592C193.896 224.963 194.543 224.444 195.279 224.069L195.911 225.084C195.45 225.334 195.022 225.635 194.634 225.981C195.32 226.263 195.478 226.545 195.466 226.861C195.457 227.028 195.384 227.187 195.263 227.307C195.141 227.428 194.978 227.502 194.804 227.515C194.494 227.561 194.178 227.514 193.896 227.382C193.614 227.25 193.381 227.039 193.228 226.776L192.431 226.59C189.407 225.93 188.499 225.022 187.69 224.221C186.881 223.42 186.283 222.817 183.348 222.529C179.796 222.208 175.993 228.056 172.635 233.245C169.594 237.921 166.723 242.342 163.845 242.788C163.669 242.82 163.491 242.839 163.312 242.844Z" fill="#562911"/>
<path d="M171.909 242.844C171.134 242.831 170.39 242.551 169.811 242.055C163.787 237.238 163.552 228.846 163.81 221.362L165.709 165.43L166.934 165.464L165.035 221.401C164.795 228.609 165 236.669 170.596 241.141C170.81 241.334 171.065 241.478 171.344 241.563C171.623 241.647 171.918 241.671 172.208 241.632C174.552 241.271 177.406 236.877 180.166 232.608C183.887 226.889 187.737 220.978 192.038 221.373C195.419 221.683 196.257 222.501 197.148 223.398C197.869 224.114 198.613 224.858 201.25 225.434L201.93 225.592C202.446 224.963 203.093 224.444 203.828 224.069L204.461 225.084C203.999 225.332 203.57 225.633 203.184 225.981C203.863 226.263 204.027 226.545 204.016 226.861C204.006 227.028 203.934 227.187 203.812 227.307C203.691 227.428 203.528 227.502 203.354 227.515C203.044 227.561 202.727 227.514 202.446 227.382C202.164 227.25 201.931 227.039 201.777 226.776L200.98 226.59C197.957 225.93 197.048 225.022 196.24 224.221C195.431 223.42 194.833 222.817 191.897 222.529C188.352 222.208 184.543 228.056 181.185 233.245C178.144 237.921 175.272 242.342 172.395 242.788C172.235 242.818 172.072 242.837 171.909 242.844Z" fill="#562911"/>
<path d="M202.52 219.61L182.578 217.052C180.012 216.723 177.654 218.459 177.312 220.929L177.253 221.354C176.912 223.824 178.715 226.093 181.281 226.422L201.222 228.98C203.789 229.309 206.147 227.573 206.488 225.103L206.547 224.678C206.889 222.208 205.086 219.939 202.52 219.61Z" fill="#562911"/>
<path d="M171.847 164.46L130.39 159.143C127.824 158.814 125.466 160.549 125.124 163.019L125.065 163.444C124.723 165.914 126.527 168.184 129.093 168.513L170.549 173.83C173.116 174.159 175.474 172.423 175.816 169.953L175.874 169.528C176.216 167.058 174.413 164.789 171.847 164.46Z" fill="#B6D7E7"/>
<path d="M214.869 70.2887L151.774 62.1953C148.68 61.7948 146.441 59.3753 146.799 56.7865C147.156 54.209 149.981 52.4268 153.075 52.8385L167.432 48.0445C173.52 46.061 180.003 45.4667 186.37 46.3084C192.738 47.1502 198.815 49.405 204.121 52.8949L216.14 60.9319C219.234 61.3267 221.473 63.7519 221.115 66.3407C220.781 68.9012 217.992 70.6835 214.869 70.2887Z" fill="#B6D7E7"/>
</svg>
