<svg width="60" height="58" viewBox="0 0 60 58" fill="none" xmlns="http://www.w3.org/2000/svg">
<path d="M20 10.4952C20 8.96984 21.2437 7.73328 22.7778 7.73328H35.8707C39.1725 7.73328 39.7173 12.4388 36.5019 13.1848L28.4474 15.0535C27.3668 15.3042 26.5399 16.1702 26.3443 17.2562L25.5121 21.8764C24.9145 25.1935 20 24.7594 20 21.3895V10.4952Z" fill="#153641"/>
<path d="M47.2223 18.2285C48.7564 18.2285 50.0001 19.4651 50.0001 20.9904V34.0085C50.0001 37.2915 45.2675 37.8332 44.5172 34.6361L42.6378 26.6276C42.3857 25.5532 41.5146 24.7311 40.4224 24.5365L35.7757 23.7091C32.4395 23.1149 32.8761 18.2285 36.2654 18.2285H47.2223Z" fill="#56CCF2"/>
<path d="M39.9999 46.9524C39.9999 48.4777 38.7563 49.7143 37.2221 49.7143H24.1292C20.8274 49.7143 20.2826 45.0087 23.498 44.2627L31.5525 42.3941C32.6331 42.1434 33.46 41.2773 33.6556 40.1914L34.4879 35.5712C35.0854 32.2541 39.9999 32.6882 39.9999 36.0581V46.9524Z" fill="#FE3F5C"/>
<path d="M14.4445 39.7714C12.9104 39.7714 11.6667 38.5348 11.6667 37.0095V23.9914C11.6667 20.7085 16.3994 20.1667 17.1496 23.3638L19.029 31.3723C19.2811 32.4467 20.1522 33.2688 21.2444 33.4634L25.8911 34.2908C29.2273 34.885 28.7907 39.7714 25.4014 39.7714H14.4445Z" fill="#94CFC9"/>
</svg>
