<svg width="100" height="100" viewBox="0 0 100 100" fill="none" xmlns="http://www.w3.org/2000/svg">
<path d="M60.4961 43.1707H60.4528V38.88C60.4528 38.5507 60.1861 38.2833 59.8561 38.2833H54.9068C54.5774 38.2833 54.3101 38.55 54.3101 38.88V43.1713H45.6908V38.88C45.6908 38.5507 45.4241 38.2833 45.0941 38.2833H40.1441C39.8148 38.2833 39.5474 38.55 39.5474 38.88V43.1713H39.5041L28.7961 58.7647C28.3863 59.3611 28.1669 60.0677 28.1667 60.7913V68.2347C28.1667 68.8677 28.4182 69.4747 28.8658 69.9223C29.3134 70.3699 29.9204 70.6213 30.5534 70.6213H69.4468C70.0798 70.6213 70.6868 70.3699 71.1344 69.9223C71.582 69.4747 71.8334 68.8677 71.8334 68.2347V60.79C71.8333 60.0664 71.6139 59.3598 71.2041 58.7633L60.4961 43.1707Z" fill="#153641" fill-opacity="0.7"/>
<path d="M44.9207 53.702H40.4534V49.9007C40.4534 49.7239 40.5236 49.5543 40.6486 49.4293C40.7737 49.3042 40.9432 49.234 41.12 49.234H44.2547C44.4315 49.234 44.6011 49.3042 44.7261 49.4293C44.8511 49.5543 44.9214 49.7239 44.9214 49.9007V53.702H44.9207Z" fill="#E1E6E9"/>
<path d="M52.2333 53.702H47.7666V49.9007C47.7666 49.7239 47.8368 49.5543 47.9619 49.4293C48.0869 49.3042 48.2565 49.234 48.4333 49.234H51.5679C51.7447 49.234 51.9143 49.3042 52.0393 49.4293C52.1644 49.5543 52.2346 49.7239 52.2346 49.9007V53.702H52.2333Z" fill="#E1E6E9"/>
<path d="M59.5467 53.702H55.0801V49.9007C55.0801 49.7239 55.1503 49.5543 55.2753 49.4293C55.4004 49.3042 55.5699 49.234 55.7467 49.234H58.8814C59.0582 49.234 59.2278 49.3042 59.3528 49.4293C59.4778 49.5543 59.5481 49.7239 59.5481 49.9007V53.702H59.5467Z" fill="#E1E6E9"/>
<path d="M44.9207 60.5568H40.4534V56.7554C40.4534 56.5786 40.5236 56.409 40.6486 56.284C40.7737 56.159 40.9432 56.0887 41.12 56.0887H44.2547C44.4315 56.0887 44.6011 56.159 44.7261 56.284C44.8511 56.409 44.9214 56.5786 44.9214 56.7554V60.5568H44.9207Z" fill="#E1E6E9"/>
<path d="M52.2333 60.5568H47.7666V56.7554C47.7666 56.5786 47.8368 56.409 47.9619 56.284C48.0869 56.159 48.2565 56.0887 48.4333 56.0887H51.5679C51.7447 56.0887 51.9143 56.159 52.0393 56.284C52.1644 56.409 52.2346 56.5786 52.2346 56.7554V60.5568H52.2333Z" fill="#E1E6E9"/>
<path d="M59.5467 60.5568H55.0801V56.7554C55.0801 56.5786 55.1503 56.409 55.2753 56.284C55.4004 56.159 55.5699 56.0887 55.7467 56.0887H58.8814C59.0582 56.0887 59.2278 56.159 59.3528 56.284C59.4778 56.409 59.5481 56.5786 59.5481 56.7554V60.5568H59.5467Z" fill="#E1E6E9"/>
<path d="M44.9207 67.4113H40.4534V63.61C40.4534 63.4332 40.5236 63.2636 40.6486 63.1386C40.7737 63.0135 40.9432 62.9433 41.12 62.9433H44.2547C44.4315 62.9433 44.6011 63.0135 44.7261 63.1386C44.8511 63.2636 44.9214 63.4332 44.9214 63.61V67.4113H44.9207Z" fill="#E1E6E9"/>
<path d="M52.2333 67.4113H47.7666V63.61C47.7666 63.4332 47.8368 63.2636 47.9619 63.1386C48.0869 63.0135 48.2565 62.9433 48.4333 62.9433H51.5679C51.7447 62.9433 51.9143 63.0135 52.0393 63.1386C52.1644 63.2636 52.2346 63.4332 52.2346 63.61V67.4113H52.2333Z" fill="#E1E6E9"/>
<path d="M59.5467 67.4113H55.0801V63.61C55.0801 63.4332 55.1503 63.2636 55.2753 63.1386C55.4004 63.0135 55.5699 62.9433 55.7467 62.9433H58.8814C59.0582 62.9433 59.2278 63.0135 59.3528 63.1386C59.4778 63.2636 59.5481 63.4332 59.5481 63.61V67.4113H59.5467Z" fill="#E1E6E9"/>
<path d="M40.4534 52.7133H44.9207V53.702H40.4534V52.7133Z" fill="#64798A"/>
<path d="M47.7666 52.7133H52.2332V53.702H47.7666V52.7133Z" fill="#64798A"/>
<path d="M55.0793 52.7133H59.5473V53.702H55.0793V52.7133Z" fill="#64798A"/>
<path d="M40.4534 59.5673H44.9207V60.5566H40.4534V59.5673Z" fill="#64798A"/>
<path d="M47.7666 59.5673H52.2332V60.5566H47.7666V59.5673Z" fill="#64798A"/>
<path d="M55.0793 59.5673H59.5473V60.5566H55.0793V59.5673Z" fill="#64798A"/>
<path d="M40.4534 66.422H44.9207V67.4113H40.4534V66.422Z" fill="#64798A"/>
<path d="M47.7666 66.422H52.2332V67.4113H47.7666V66.422Z" fill="#64798A"/>
<path d="M55.0793 66.422H59.5473V67.4113H55.0793V66.422Z" fill="#64798A"/>
<path d="M31.8853 70.6207H36.3406V71.4641C36.3406 71.6409 36.2704 71.8104 36.1453 71.9355C36.0203 72.0605 35.8508 72.1307 35.6739 72.1307H32.5519C32.3751 72.1307 32.2055 72.0605 32.0805 71.9355C31.9555 71.8104 31.8853 71.6409 31.8853 71.4641V70.6207Z" fill="#2F4859"/>
<path d="M63.6592 70.6207H68.1145V71.4641C68.1145 71.6409 68.0443 71.8104 67.9192 71.9355C67.7942 72.0605 67.6247 72.1307 67.4478 72.1307H64.3258C64.149 72.1307 63.9795 72.0605 63.8544 71.9355C63.7294 71.8104 63.6592 71.6409 63.6592 71.4641V70.6207Z" fill="#2F4859"/>
<path d="M49.7013 27.8693C34.4913 27.8693 28.5133 30.8426 26.1913 32.4659C25.7403 32.7824 25.3926 33.2249 25.192 33.738C24.9913 34.2512 24.9466 34.8121 25.0633 35.3506L26.2946 41.0773C26.4133 41.6306 26.9033 42.0266 27.47 42.0266H36.4133C37.0773 42.0266 37.6153 41.4879 37.6153 40.8239V37.1706C37.6153 36.5288 37.8703 35.9132 38.3241 35.4594C38.778 35.0056 39.3935 34.7506 40.0353 34.7506H59.9633C60.6052 34.7506 61.2207 35.0056 61.6745 35.4594C62.1284 35.9132 62.3833 36.5288 62.3833 37.1706V40.8239C62.3833 41.4879 62.9213 42.0266 63.5853 42.0266H72.5293C73.096 42.0266 73.586 41.6306 73.7047 41.0766L74.936 35.3506C75.0527 34.8121 75.008 34.2512 74.8073 33.738C74.6067 33.2249 74.259 32.7824 73.808 32.4659C71.486 30.8426 64.9113 27.8693 49.7013 27.8693Z" fill="#3A556A"/>
</svg>
