<svg width="50" height="50" viewBox="0 0 50 50" fill="none" xmlns="http://www.w3.org/2000/svg">
<rect width="50" height="50" rx="25" fill="#E9EFF3"/>
<path d="M13.8754 22.9665C14.1618 22.6787 14.5025 22.4506 14.8777 22.2953C15.2529 22.14 15.6552 22.0606 16.0612 22.0618L22.0614 22.0618L22.0618 16.0612C22.0605 15.6551 22.1399 15.2528 22.2952 14.8776C22.4506 14.5023 22.6789 14.1617 22.9669 13.8753C23.2533 13.5875 23.5939 13.3593 23.969 13.204C24.3442 13.0487 24.7464 12.9694 25.1524 12.9706C25.5585 12.9694 25.9608 13.0487 26.336 13.204C26.7112 13.3593 27.0519 13.5875 27.3383 13.8753C27.6262 14.1618 27.8545 14.5025 28.0098 14.8778C28.1651 15.2531 28.2444 15.6554 28.2431 16.0616L28.2434 22.0614L33.8799 22.0618C34.7054 22.0614 35.4818 22.3829 36.0658 22.9665C36.6498 23.5502 36.9709 24.3269 36.9706 25.1524C36.9706 25.9779 36.6495 26.7539 36.0655 27.3383C35.7791 27.6262 35.4384 27.8544 35.0632 28.0097C34.688 28.165 34.2857 28.2443 33.8796 28.243L28.2431 28.2434L28.2431 33.8799C28.2431 34.7058 27.922 35.4814 27.3379 36.0658C27.0517 36.3538 26.7111 36.5821 26.3359 36.7374C25.9607 36.8927 25.5585 36.972 25.1524 36.9706C24.3269 36.9709 23.5506 36.6495 22.9665 36.0658C22.3825 35.4822 22.0614 34.7054 22.0618 33.8799L22.0611 28.2434L16.0612 28.243C15.6552 28.2443 15.2529 28.1649 14.8777 28.0096C14.5025 27.8543 14.1618 27.6261 13.8754 27.3383C13.5875 27.0519 13.3593 26.7112 13.204 26.336C13.0487 25.9608 12.9694 25.5585 12.9706 25.1524C12.9693 24.7463 13.0486 24.344 13.2039 23.9688C13.3592 23.5936 13.5874 23.2529 13.8754 22.9665ZM23.3029 23.3033C23.1713 23.4345 22.9898 23.516 22.7887 23.516L16.0612 23.5164C15.6234 23.5164 15.2129 23.6865 14.9038 23.9953C14.7514 24.1469 14.6306 24.3273 14.5484 24.5259C14.4662 24.7245 14.4242 24.9374 14.4248 25.1524C14.4243 25.3673 14.4664 25.5803 14.5486 25.7789C14.6308 25.9775 14.7515 26.1578 14.9038 26.3095C15.0552 26.4621 15.2355 26.583 15.4342 26.6653C15.6329 26.7475 15.8459 26.7894 16.0609 26.7885L22.7884 26.7892C22.9812 26.7892 23.1662 26.8658 23.3026 27.0022C23.439 27.1386 23.5156 27.3236 23.5156 27.5165L23.516 33.8799C23.5154 34.0949 23.5574 34.3078 23.6396 34.5065C23.7218 34.7051 23.8426 34.8854 23.9949 35.0371C24.1466 35.1895 24.327 35.3104 24.5257 35.3927C24.7243 35.4749 24.9374 35.517 25.1524 35.5163C25.3674 35.5168 25.5803 35.4747 25.7789 35.3925C25.9775 35.3102 26.1579 35.1894 26.3095 35.0371C26.462 34.8857 26.5828 34.7054 26.665 34.5069C26.7471 34.3084 26.789 34.0955 26.7881 33.8807L26.7888 27.5161C26.7888 27.3233 26.8654 27.1383 27.0017 27.002C27.138 26.8656 27.3229 26.7889 27.5158 26.7888L33.8799 26.7885C34.0949 26.7891 34.3078 26.7471 34.5064 26.665C34.705 26.5828 34.8854 26.4622 35.0371 26.3099C35.1895 26.1583 35.3103 25.978 35.3925 25.7793C35.4747 25.5807 35.5167 25.3677 35.516 25.1528C35.5167 24.9377 35.4747 24.7246 35.3925 24.5259C35.3103 24.3271 35.1895 24.1467 35.0371 23.9949C34.8854 23.8426 34.7051 23.7218 34.5065 23.6396C34.3078 23.5574 34.0949 23.5154 33.8799 23.516L27.5161 23.516C27.3232 23.516 27.1382 23.4394 27.0018 23.303C26.8655 23.1666 26.7888 22.9816 26.7888 22.7887L26.7885 16.0612C26.7891 15.8462 26.7471 15.6332 26.6649 15.4345C26.5827 15.2359 26.4619 15.0554 26.3095 14.9037C26.1578 14.7515 25.9774 14.6308 25.7788 14.5487C25.5802 14.4665 25.3674 14.4244 25.1524 14.4248C24.715 14.4248 24.3044 14.5954 23.9953 14.9037C23.8428 15.0553 23.7219 15.2357 23.6397 15.4344C23.5574 15.6331 23.5155 15.8462 23.5164 16.0612L23.5156 22.7887C23.5156 22.9898 23.4342 23.1716 23.3029 23.3033Z" fill="#868686"/>
</svg>
