<svg width="100" height="100" viewBox="0 0 100 100" fill="none" xmlns="http://www.w3.org/2000/svg">
<circle cx="50" cy="50" r="50" fill="#D0EEF8"/>
<path d="M50.7383 72.7294C50.5976 72.7294 50.4586 72.6977 50.3318 72.6367C50.2049 72.5757 50.0934 72.487 50.0056 72.3771C49.9177 72.2671 49.8557 72.1388 49.8241 72.0017C49.7925 71.8645 49.7922 71.722 49.8232 71.5847L52.4927 59.7933C52.531 59.6244 52.6152 59.4694 52.7362 59.3455C52.8572 59.2216 53.0101 59.1336 53.178 59.0913L61.7386 56.9338C61.9787 56.876 62.2319 56.9152 62.4432 57.0429C62.6546 57.1707 62.807 57.3767 62.8673 57.6161C62.9277 57.8556 62.8911 58.1092 62.7656 58.3219C62.64 58.5345 62.4356 58.689 62.1968 58.7519L54.1944 60.7687L51.6514 71.9988C51.6045 72.206 51.4887 72.3912 51.3228 72.5239C51.1569 72.6567 50.9508 72.7291 50.7383 72.7294Z" fill="#FEDB41"/>
<path d="M78.9516 20.5995L81.4559 25.335L72.8145 29.9053C69.9906 31.401 67.7789 33.8375 66.5625 36.7924L64.1801 42.5956L59.2242 40.56L61.6067 34.7581C63.2996 30.6437 66.3786 27.2512 70.3102 25.1686L78.9516 20.5995Z" fill="#00ACEA"/>
<path d="M58.1519 40.1194C57.4043 42.8509 55.6467 45.1961 53.235 46.6805C50.8233 48.1648 47.9377 48.6773 45.1624 48.1141C42.3871 47.551 39.9294 45.9543 38.287 43.6474C36.6446 41.3404 35.9402 38.4955 36.3164 35.6887C36.6926 32.882 38.1212 30.323 40.3131 28.5299C42.505 26.7368 45.2963 25.8436 48.122 26.0311C50.9476 26.2186 53.5965 27.4728 55.5322 29.5398C57.468 31.6068 58.546 34.3321 58.548 37.164C58.5487 38.1624 58.4155 39.1564 58.1519 40.1194Z" fill="#FEDB41"/>
<path d="M68.5137 43.658C68.4178 43.4286 68.2347 43.2466 68.0047 43.1522L58.4999 39.2489L58.4822 39.2418L57.7869 40.9832L57.8648 41.0152C57.3539 42.4021 56.5727 43.6739 55.5665 44.7566C54.5603 45.8393 53.3492 46.7115 52.0033 47.3226C50.6574 47.9337 49.2037 48.2715 47.7263 48.3164C46.2489 48.3613 44.7772 48.1125 43.3967 47.5843L43.392 47.5972L42.8971 46.8009L42.6458 46.9573C41.0444 47.9496 39.7984 49.4237 39.0866 51.1679L31.6767 69.2114C31.5823 69.4414 31.5831 69.6995 31.6789 69.9289C31.7748 70.1584 31.9579 70.3403 32.1879 70.4347L50.7724 78.0659C51.2117 78.2465 51.6823 78.3387 52.1572 78.3374C52.6322 78.3361 53.1022 78.2412 53.5405 78.0581C53.9787 77.8751 54.3767 77.6075 54.7115 77.2706C55.0463 76.9337 55.3114 76.5342 55.4918 76.0948L64.2936 54.6601L68.516 44.3757C68.5628 44.2618 68.5866 44.1398 68.5862 44.0166C68.5858 43.8935 68.5612 43.7716 68.5137 43.658ZM53.7572 75.3829C53.6703 75.5944 53.5427 75.7868 53.3814 75.9489C53.2202 76.1111 53.0286 76.2399 52.8176 76.328C52.6066 76.4161 52.3803 76.4618 52.1516 76.4624C51.9229 76.463 51.6964 76.4185 51.4849 76.3315L39.196 71.2855L48.2753 54.8511C48.7817 53.9337 49.5661 53.2006 50.5156 52.7572C51.465 52.3137 52.5307 52.1828 53.5592 52.3832L62.488 54.1211L53.7572 75.3829Z" fill="#00EFD1"/>
<path d="M47.3907 36.1586C47.0046 36.1586 46.6271 36.0441 46.306 35.8296C45.985 35.615 45.7347 35.3101 45.587 34.9534C45.4392 34.5966 45.4005 34.2041 45.4759 33.8254C45.5512 33.4466 45.7371 33.0988 46.0102 32.8257C46.2832 32.5527 46.6311 32.3668 47.0098 32.2914C47.3885 32.2161 47.7811 32.2548 48.1378 32.4025C48.4946 32.5503 48.7995 32.8005 49.014 33.1216C49.2286 33.4426 49.3431 33.8201 49.3431 34.2062C49.3431 34.4549 49.4418 34.6933 49.6176 34.8692C49.7935 35.045 50.0319 35.1437 50.2806 35.1437C50.5292 35.1437 50.7677 35.045 50.9435 34.8692C51.1193 34.6933 51.2181 34.4549 51.2181 34.2062C51.2168 33.3547 50.9321 32.5278 50.4088 31.856C49.8856 31.1842 49.1535 30.7058 48.3282 30.4961V29.6641C48.3282 29.4154 48.2294 29.177 48.0536 29.0012C47.8778 28.8253 47.6393 28.7266 47.3907 28.7266C47.1421 28.7266 46.9036 28.8253 46.7278 29.0012C46.552 29.177 46.4532 29.4154 46.4532 29.6641V30.4961C45.5484 30.7247 44.7582 31.276 44.2314 32.0464C43.7046 32.8168 43.4775 33.7531 43.5926 34.6792C43.7078 35.6053 44.1574 36.4575 44.8569 37.0753C45.5563 37.6932 46.4574 38.0342 47.3907 38.0342C47.7767 38.0343 48.154 38.1488 48.4748 38.3634C48.7957 38.5779 49.0458 38.8827 49.1934 39.2393C49.3411 39.5959 49.3797 39.9883 49.3044 40.3669C49.229 40.7454 49.0432 41.0931 48.7702 41.366C48.4973 41.639 48.1496 41.8248 47.771 41.9002C47.3925 41.9755 47.0001 41.9369 46.6435 41.7892C46.2869 41.6416 45.982 41.3915 45.7675 41.0706C45.553 40.7498 45.4385 40.3725 45.4384 39.9865C45.4384 39.7379 45.3396 39.4994 45.1638 39.3236C44.988 39.1478 44.7495 39.049 44.5009 39.049C44.2522 39.049 44.0138 39.1478 43.8379 39.3236C43.6621 39.4994 43.5634 39.7379 43.5634 39.9865C43.5647 40.817 43.8358 41.6247 44.3358 42.2878C44.8359 42.9509 45.5379 43.4336 46.336 43.6632V44.6641C46.336 44.9127 46.4348 45.1512 46.6106 45.327C46.7864 45.5028 47.0249 45.6016 47.2735 45.6016C47.5222 45.6016 47.7606 45.5028 47.9364 45.327C48.1123 45.1512 48.211 44.9127 48.211 44.6641V43.7227C49.1327 43.5207 49.9473 42.9852 50.4983 42.2192C51.0492 41.4532 51.2977 40.5105 51.196 39.5725C51.0942 38.6344 50.6495 37.7669 49.9471 37.1368C49.2447 36.5067 48.3343 36.1583 47.3907 36.1586Z" fill="#00ACEA"/>
</svg>
