<svg width="50" height="50" viewBox="0 0 50 50" fill="none" xmlns="http://www.w3.org/2000/svg">
<rect width="50" height="50" rx="25" fill="#E9EFF3"/>
<path d="M36.5015 18.1679C35.6556 18.5371 34.7609 18.7826 33.845 18.8969C34.8104 18.3235 35.5323 17.4164 35.8745 16.3469C34.9701 16.883 33.981 17.2609 32.9495 17.4644C32.3175 16.7874 31.4963 16.3165 30.5928 16.1128C29.6893 15.9092 28.7455 15.9824 27.8842 16.3228C27.0229 16.6632 26.284 17.2551 25.7639 18.0214C25.2437 18.7876 24.9664 19.6928 24.968 20.6189C24.968 20.9849 24.998 21.3359 25.0745 21.6704C23.2395 21.5805 21.4441 21.1042 19.8058 20.2727C18.1675 19.4411 16.7233 18.2731 15.5675 16.8449C15.17 17.5349 14.936 18.3254 14.936 19.1759C14.936 20.7734 15.7595 22.1894 16.985 23.0099C16.2555 22.9897 15.5415 22.7948 14.903 22.4414V22.4909C14.9039 23.5561 15.2719 24.5884 15.9452 25.4139C16.6185 26.2394 17.5557 26.8074 18.599 27.0224C18.2225 27.1274 17.8115 27.1769 17.387 27.1769C17.0915 27.1769 16.7945 27.1604 16.514 27.0974C16.8124 28.0127 17.3868 28.8131 18.1585 29.3887C18.9302 29.9643 19.8611 30.2868 20.8235 30.3119C19.191 31.5896 17.177 32.2825 15.104 32.2799C14.726 32.2799 14.363 32.2634 14 32.2169C16.1096 33.5758 18.5676 34.2948 21.077 34.2869C29.5655 34.2869 34.205 27.2549 34.205 21.1604C34.2041 20.9618 34.1986 20.7633 34.1885 20.5649C35.0985 19.9128 35.8823 19.1006 36.5015 18.1679V18.1679Z" stroke="black" stroke-miterlimit="10" stroke-linecap="round" stroke-linejoin="round"/>
</svg>
