<svg width="24" height="20" viewBox="0 0 24 20" fill="none" xmlns="http://www.w3.org/2000/svg">
<path d="M23.5015 3.16792C22.6556 3.53712 21.7609 3.78264 20.845 3.89692C21.8104 3.32347 22.5323 2.41635 22.8745 1.34692C21.9701 1.88303 20.981 2.26095 19.9495 2.46442C19.3175 1.78744 18.4963 1.31646 17.5928 1.11283C16.6893 0.909207 15.7455 0.982362 14.8842 1.32277C14.0229 1.66318 13.284 2.25507 12.7639 3.02135C12.2437 3.78763 11.9664 4.69278 11.968 5.61891C11.968 5.98491 11.998 6.33592 12.0745 6.67042C10.2395 6.58053 8.44408 6.10424 6.8058 5.27269C5.16752 4.44114 3.72326 3.27308 2.5675 1.84492C2.17 2.53492 1.936 3.32542 1.936 4.17592C1.936 5.77342 2.7595 7.18941 3.985 8.00991C3.25551 7.98974 2.54151 7.79478 1.903 7.44142V7.49092C1.90386 8.55611 2.27194 9.58845 2.9452 10.4139C3.61845 11.2394 4.55572 11.8074 5.599 12.0224C5.2225 12.1274 4.8115 12.1769 4.387 12.1769C4.0915 12.1769 3.7945 12.1604 3.514 12.0974C3.81236 13.0127 4.38684 13.8131 5.15851 14.3887C5.93017 14.9643 6.86114 15.2868 7.8235 15.3119C6.191 16.5896 4.17703 17.2825 2.104 17.2799C1.726 17.2799 1.363 17.2634 1 17.2169C3.10961 18.5758 5.5676 19.2948 8.077 19.2869C16.5655 19.2869 21.205 12.2549 21.205 6.16041C21.2041 5.96181 21.1986 5.76326 21.1885 5.56492C22.0985 4.91283 22.8823 4.10061 23.5015 3.16792V3.16792Z" stroke="black" stroke-miterlimit="10" stroke-linecap="round" stroke-linejoin="round"/>
</svg>
